<svg width="33" height="31" viewBox="0 0 33 31" fill="none" xmlns="http://www.w3.org/2000/svg">
<g clip-path="url(#clip0_310_1047)">
<path d="M2.73216 1.16829L2.73216 2.61542C1.35994 3.09769 0.374119 4.39628 0.374119 5.91934C0.374119 7.44241 1.35994 8.741 2.73216 9.22327L2.73216 29.3631C2.73216 30.0083 3.26005 30.5313 3.91118 30.5313C4.56231 30.5313 5.0902 30.0083 5.0902 29.3631L5.0902 9.22327C6.46242 8.741 7.44824 7.44241 7.44824 5.91934C7.44824 4.39628 6.46242 3.09769 5.0902 2.61542L5.0902 1.16829C5.0902 0.523083 4.56231 -1.26148e-07 3.91118 -1.5461e-07C3.26005 -1.83072e-07 2.73216 0.523083 2.73216 1.16829ZM5.0902 5.91934C5.0902 6.56354 4.56129 7.08763 3.91118 7.08763C3.26107 7.08763 2.73216 6.56354 2.73216 5.91934C2.73216 5.27515 3.26107 4.75105 3.91118 4.75105C4.56129 4.75105 5.0902 5.27515 5.0902 5.91934Z" fill="#2B2B2B"/>
<path d="M15.3601 29.3631L15.3601 27.916C13.9879 27.4337 13.002 26.1351 13.002 24.612C13.002 23.089 13.9879 21.7904 15.3601 21.3081L15.3601 1.16831C15.3601 0.523102 15.888 1.92549e-05 16.5391 1.92267e-05C17.1902 1.91985e-05 17.7181 0.523102 17.7181 1.16831L17.7181 21.3081C19.0904 21.7904 20.0762 23.089 20.0762 24.612C20.0762 26.1351 19.0904 27.4337 17.7181 27.916L17.7181 29.3631C17.7181 30.0083 17.1902 30.5314 16.5391 30.5314C15.888 30.5314 15.3601 30.0083 15.3601 29.3631ZM17.7181 24.612C17.7181 23.9678 17.1892 23.4437 16.5391 23.4437C15.889 23.4437 15.3601 23.9678 15.3601 24.612C15.3601 25.2562 15.889 25.7803 16.5391 25.7803C17.1892 25.7803 17.7181 25.2562 17.7181 24.612Z" fill="#01E45C"/>
<path d="M27.987 1.16829L27.987 2.61542C26.6148 3.09769 25.629 4.39628 25.629 5.91934C25.629 7.44241 26.6148 8.741 27.987 9.22327L27.987 29.3631C27.987 30.0083 28.5149 30.5313 29.1661 30.5313C29.8172 30.5313 30.3451 30.0083 30.3451 29.3631L30.3451 9.22327C31.7173 8.741 32.7031 7.44241 32.7031 5.91934C32.7031 4.39628 31.7173 3.09769 30.3451 2.61542L30.3451 1.16829C30.3451 0.523083 29.8172 -1.26148e-07 29.1661 -1.5461e-07C28.5149 -1.83072e-07 27.987 0.523083 27.987 1.16829ZM30.3451 5.91934C30.3451 6.56354 29.8162 7.08763 29.1661 7.08763C28.5159 7.08763 27.987 6.56354 27.987 5.91934C27.987 5.27515 28.5159 4.75105 29.1661 4.75105C29.8162 4.75105 30.3451 5.27515 30.3451 5.91934Z" fill="#2B2B2B"/>
</g>
<defs>
<clipPath id="clip0_310_1047">
<rect width="33" height="30.6977" fill="white"/>
</clipPath>
</defs>
</svg>
