<svg width="40" height="32" viewBox="0 0 40 32" fill="none" xmlns="http://www.w3.org/2000/svg">
<g clip-path="url(#clip0_310_1022)">
<path d="M3.51562 31.6859H36.4844C38.4229 31.6859 40 30.178 40 28.3246V3.67525C40 1.82184 38.4229 0.313965 36.4844 0.313965H3.51562C1.57711 0.313965 0 1.82184 0 3.67525V28.3246C0 30.178 1.57711 31.6859 3.51562 31.6859ZM2.34375 3.67525C2.34375 3.05744 2.86945 2.55482 3.51562 2.55482H36.4844C37.1305 2.55482 37.6562 3.05744 37.6562 3.67525V28.3246C37.6562 28.9424 37.1305 29.4451 36.4844 29.4451H3.51562C2.86945 29.4451 2.34375 28.9424 2.34375 28.3246V3.67525Z" fill="#01E45C"/>
<path d="M5.85938 24.9634H7.31094C7.79469 26.2674 9.09727 27.2042 10.625 27.2042C12.1527 27.2042 13.4553 26.2674 13.9391 24.9634H34.1406C34.7878 24.9634 35.3125 24.4617 35.3125 23.843C35.3125 23.2242 34.7878 22.7225 34.1406 22.7225H13.9391C13.4553 21.4185 12.1527 20.4817 10.625 20.4817C9.09727 20.4817 7.79469 21.4185 7.31094 22.7225H5.85938C5.21219 22.7225 4.6875 23.2242 4.6875 23.843C4.6875 24.4617 5.21219 24.9634 5.85938 24.9634ZM10.625 22.7225C11.2712 22.7225 11.7969 23.2252 11.7969 23.843C11.7969 24.4608 11.2712 24.9634 10.625 24.9634C9.97883 24.9634 9.45313 24.4608 9.45313 23.843C9.45313 23.2252 9.97883 22.7225 10.625 22.7225Z" fill="#2B2B2B"/>
<path d="M14.6964 18.0735C15.0425 18.278 15.4741 18.2959 15.8366 18.1226L25.2116 13.6409C25.6086 13.451 25.8594 13.0631 25.8594 12.6387C25.8594 12.2143 25.6086 11.8264 25.2116 11.6365L15.8366 7.1548C15.4734 6.98113 15.0419 6.99966 14.6964 7.20388C14.3509 7.40802 14.1406 7.76865 14.1406 8.15699V17.1204C14.1406 17.5087 14.3509 17.8694 14.6964 18.0735ZM16.4844 9.96991L22.0671 12.6387L16.4844 15.3075V9.96991Z" fill="#2B2B2B"/>
</g>
<defs>
<clipPath id="clip0_310_1022">
<rect width="40" height="32" fill="white"/>
</clipPath>
</defs>
</svg>
