<svg width="42" height="32" viewBox="0 0 42 32" fill="none" xmlns="http://www.w3.org/2000/svg">
<g clip-path="url(#clip0_310_1039)">
<path d="M40.8729 24.7653L31.48 15.4247C33.2424 11.4468 32.4883 6.62357 29.2163 3.36982C24.9533 -0.869406 18.0529 -0.869977 13.7894 3.36982C9.53635 7.59909 9.53635 14.4806 13.7894 18.7099C17.169 22.0707 22.122 22.7106 26.076 20.8933L35.4209 30.1861C36.9276 31.6843 39.3665 31.6845 40.8732 30.1858C42.3758 28.6913 42.3756 26.2597 40.8729 24.7653ZM15.5297 16.98C12.236 13.7046 12.236 8.37519 15.5297 5.09974C18.8308 1.81703 24.1742 1.81646 27.4758 5.09974C30.7696 8.37519 30.7696 13.7046 27.4758 16.98C24.1747 20.2628 18.8313 20.2632 15.5297 16.98ZM39.1326 28.4561C38.5879 28.9979 37.7062 28.9981 37.1613 28.4562L28.2331 19.5778C28.967 19.0034 29.621 18.3439 30.189 17.6016L39.1324 26.4952C39.6761 27.0358 39.6761 27.9154 39.1326 28.4561Z" fill="#01E45C"/>
<path d="M1.23052 14.8496H6.47764C7.15722 14.8496 7.70816 14.3018 7.70816 13.6262C7.70816 12.9506 7.15722 12.4028 6.47764 12.4028H1.23052C0.550946 12.4028 0 12.9506 0 13.6262C0 14.3018 0.550946 14.8496 1.23052 14.8496Z" fill="#2B2B2B"/>
<path d="M1.23052 20.0693H8.44533C9.12491 20.0693 9.67585 19.5215 9.67585 18.8459C9.67585 18.1703 9.12491 17.6226 8.44533 17.6226H1.23052C0.550946 17.6226 0 18.1703 0 18.8459C0 19.5215 0.550946 20.0693 1.23052 20.0693Z" fill="#2B2B2B"/>
<path d="M1.23052 25.2889H13.6925C14.3721 25.2889 14.9231 24.7412 14.9231 24.0655C14.9231 23.3899 14.3721 22.8422 13.6925 22.8422H1.23052C0.550947 22.8422 0 23.3899 0 24.0655C0 24.7412 0.550947 25.2889 1.23052 25.2889Z" fill="#2B2B2B"/>
<path d="M28.1223 28.0619H1.23052C0.550947 28.0619 0 28.6096 0 29.2853C0 29.9609 0.550947 30.5086 1.23052 30.5086H28.1223C28.8019 30.5086 29.3528 29.9609 29.3528 29.2853C29.3528 28.6096 28.8019 28.0619 28.1223 28.0619Z" fill="#2B2B2B"/>
</g>
<defs>
<clipPath id="clip0_310_1039">
<rect width="42" height="31.5" fill="white"/>
</clipPath>
</defs>
</svg>
