<svg width="28" height="35" viewBox="0 0 28 35" fill="none" xmlns="http://www.w3.org/2000/svg">
<g clip-path="url(#clip0_313_2995)">
<path d="M27.7068 13.0985L20.7067 4.70155C20.3161 4.23316 19.6829 4.2333 19.2924 4.70183C19.105 4.92674 18.9997 5.23165 18.9996 5.5497V9.14837H11.9995C11.4472 9.14837 10.9995 9.68543 10.9995 10.348C10.9995 11.0105 11.4472 11.5475 11.9995 11.5475H19.9997C20.552 11.5475 20.9997 11.0105 20.9997 10.348V8.44536L25.5858 13.9466L20.9997 19.4477V17.5452C20.9997 16.8827 20.552 16.3456 19.9997 16.3456H8.99944V12.747C8.99933 12.0845 8.55149 11.5475 7.99923 11.5477C7.73415 11.5477 7.47991 11.674 7.2924 11.8989L0.292324 20.2958C-0.0980925 20.7643 -0.0980925 21.5236 0.292324 21.992L7.29246 30.3889C7.47997 30.6139 7.73427 30.7403 7.99947 30.7404C8.13089 30.7409 8.26115 30.7099 8.38244 30.6493C8.75604 30.4634 8.99956 30.026 8.99944 29.5408V25.9422H15.9996C16.5519 25.9422 16.9996 25.4051 16.9996 24.7426C16.9996 24.0801 16.5519 23.543 15.9996 23.543H7.99947C7.44715 23.543 6.99943 24.0801 6.99943 24.7426V26.6451L2.41334 21.1439L6.99943 15.6427V17.5452C6.99943 18.2078 7.44715 18.7448 7.99947 18.7448H18.9996V22.3435C18.9998 23.006 19.4476 23.5429 19.9998 23.5428C20.2649 23.5427 20.5192 23.4164 20.7067 23.1916L27.7068 14.7946C28.0972 14.3262 28.0972 13.5669 27.7068 13.0985Z" fill="#2B2B2B"/>
</g>
<defs>
<clipPath id="clip0_313_2995">
<rect width="28" height="33.5871" fill="white" transform="translate(0 0.751709)"/>
</clipPath>
</defs>
</svg>
