<svg width="31" height="44" viewBox="0 0 31 44" fill="none" xmlns="http://www.w3.org/2000/svg">
<g clip-path="url(#clip0_310_687)">
<path d="M27.7073 22.0985L20.7072 13.7015C20.3166 13.2332 19.6834 13.2333 19.2929 13.7018C19.1055 13.9267 19.0002 14.2316 19.0001 14.5497V18.1484H12C11.4477 18.1484 10.9999 18.6854 10.9999 19.348C10.9999 20.0105 11.4477 20.5475 12 20.5475H20.0002C20.5525 20.5475 21.0002 20.0105 21.0002 19.348V17.4454L25.5863 22.9466L21.0002 28.4477V26.5452C21.0002 25.8827 20.5525 25.3456 20.0002 25.3456H8.99993V21.747C8.99981 21.0845 8.55198 20.5475 7.99972 20.5477C7.73464 20.5477 7.4804 20.674 7.29289 20.8989L0.292813 29.2958C-0.0976042 29.7643 -0.0976042 30.5236 0.292813 30.992L7.29295 39.3889C7.48045 39.6139 7.73476 39.7403 7.99995 39.7404C8.13138 39.7409 8.26164 39.7099 8.38293 39.6493C8.75653 39.4634 9.00005 39.026 8.99993 38.5408V34.9422H16.0001C16.5524 34.9422 17.0001 34.4051 17.0001 33.7426C17.0001 33.0801 16.5524 32.543 16.0001 32.543H7.99995C7.44764 32.543 6.99992 33.0801 6.99992 33.7426V35.6451L2.41383 30.1439L6.99992 24.6427V26.5452C6.99992 27.2078 7.44764 27.7448 7.99995 27.7448H19.0001V31.3435C19.0002 32.006 19.4481 32.5429 20.0003 32.5428C20.2654 32.5427 20.5197 32.4164 20.7072 32.1916L27.7073 23.7946C28.0977 23.3262 28.0977 22.5669 27.7073 22.0985Z" fill="#2B2B2B"/>
</g>
<circle cx="23.5" cy="7.5" r="7.5" fill="#00D254"/>
<path d="M21.45 8.98C21.47 8.18667 21.7 7.58 22.14 7.16C22.5867 6.74 23.2167 6.53 24.03 6.53C24.5567 6.53 25.0067 6.62 25.38 6.8C25.7533 6.98 26.0333 7.22333 26.22 7.53C26.4133 7.83667 26.51 8.18333 26.51 8.57C26.51 9.03667 26.4 9.40333 26.18 9.67C25.96 9.93 25.7133 10.1067 25.44 10.2V10.24C26.24 10.54 26.64 11.0967 26.64 11.91C26.64 12.3367 26.54 12.7133 26.34 13.04C26.14 13.3667 25.8533 13.62 25.48 13.8C25.1133 13.98 24.6767 14.07 24.17 14.07C23.3033 14.07 22.6233 13.8633 22.13 13.45C21.6367 13.0367 21.3833 12.39 21.37 11.51L23.53 11.51C23.5167 11.75 23.55 11.9333 23.63 12.06C23.7167 12.18 23.8633 12.24 24.07 12.24C24.19 12.24 24.29 12.1967 24.37 12.11C24.45 12.0167 24.49 11.8967 24.49 11.75C24.49 11.5633 24.4267 11.4233 24.3 11.33C24.18 11.23 23.9733 11.18 23.68 11.18L23.31 11.18L23.31 9.39L23.67 9.39C24.1233 9.41667 24.35 9.23667 24.35 8.85C24.35 8.68333 24.3133 8.56 24.24 8.48C24.1733 8.4 24.0867 8.36 23.98 8.36C23.7333 8.36 23.61 8.56667 23.61 8.98L21.45 8.98Z" fill="white"/>
<defs>
<clipPath id="clip0_310_687">
<rect width="28" height="33.5871" fill="white" transform="translate(0 9.75171)"/>
</clipPath>
</defs>
</svg>
