<svg width="10" height="10" viewBox="0 0 10 10" fill="none" xmlns="http://www.w3.org/2000/svg">
<g clip-path="url(#clip0_402_32)">
<path d="M9.45252 4.21976H9.45309H5.78122V0.554798C5.78122 0.253172 5.53699 0.000976562 5.23537 0.000976562H4.76553C4.46398 0.000976562 4.2187 0.253172 4.2187 0.554798V4.21976H0.546911C0.245447 4.21976 0 4.46366 0 4.76537V5.23789C0 5.53935 0.245366 5.7822 0.546911 5.7822H4.21878V9.46041C4.21878 9.76187 4.46398 10.0009 4.76561 10.0009H5.23545C5.53707 10.0009 5.7813 9.76179 5.7813 9.46041V5.7822H9.45252C9.75415 5.7822 10 5.53927 10 5.23789V4.76537C10 4.46366 9.75415 4.21976 9.45252 4.21976Z" fill="white"/>
</g>
<defs>
<clipPath id="clip0_402_32">
<rect width="10" height="10" fill="white"/>
</clipPath>
</defs>
</svg>
