<svg width="395" height="336" viewBox="0 0 395 336" fill="none" xmlns="http://www.w3.org/2000/svg">
<path opacity="0.34" d="M83.5166 213.954L105.516 209.734L135.438 193.021C138.577 191.269 138.379 186.699 135.103 185.221L119.746 178.319L83.5166 213.954Z" fill="#ABABAB"/>
<path d="M113.302 109.96L113.18 109.883L112.89 178.122C112.89 178.411 112.738 178.685 112.479 178.822L68.2663 204.113C67.7178 204.417 67.3369 133.574 67.3369 133.574C67.3369 133.285 67.4893 133.01 67.7483 132.873L111.778 107.705C112.007 107.583 112.327 107.461 112.571 107.568L114.033 108.329L113.302 109.96Z" fill="#0BAF1B"/>
<path d="M69.043 133.62L113.256 108.329C113.804 108.025 114.475 108.406 114.475 109.045L114.2 178.883C114.2 179.173 114.048 179.447 113.789 179.584L69.5762 204.874C69.363 204.509 68.9821 204.036 68.3574 204.158L68.6469 134.336C68.6316 134.031 68.7992 133.772 69.043 133.62Z" fill="#00C213"/>
<path d="M125.856 117.166C117.842 115.657 115.983 114.819 113.576 111.148L71.8008 135.067C72.1512 137.825 75.0764 141.496 85.0555 141.085L125.856 117.166Z" fill="#FFFAFA"/>
<path d="M128.065 117.455L125.993 116.313C125.749 116.099 125.323 116.145 125.003 116.328L81.2926 141.313C81.0336 141.451 80.8813 141.725 80.8813 142.014L80.5918 211.837C80.5918 212.461 81.2621 212.858 81.8106 212.553L126.023 187.263C126.282 187.125 126.435 186.851 126.435 186.562L126.709 119.573L127.882 119.451L128.065 117.455Z" fill="#00C213"/>
<path d="M82.862 143.066C74.6501 143.644 70.0795 138.906 67.3828 133.3L68.0684 204.966C68.2055 213.345 81.5974 215.265 82.862 214.031V143.066Z" fill="#00C213"/>
<path d="M83.151 142.791L127.364 117.501C127.912 117.196 128.583 117.577 128.583 118.217L128.293 188.04C128.293 188.329 128.141 188.603 127.882 188.74L83.5167 213.939C82.9682 214.244 82.4502 213.939 82.4502 213.315L82.7397 143.492C82.7397 143.203 82.892 142.944 83.151 142.791Z" fill="#01E45C"/>
<path opacity="0.34" d="M119.076 230.545L140.421 226.219L167.463 209.612C170.297 207.876 169.261 203.396 165.696 201.995L148.998 195.398L119.076 230.545Z" fill="#ABABAB"/>
<path d="M130.076 128.623L129.938 128.546L142.081 195.246C142.127 195.535 142.02 195.794 141.792 195.931L101.936 221.054C101.448 221.359 88.1481 152.115 88.1481 152.115C88.1024 151.826 88.209 151.567 88.4375 151.43L128.11 126.413C128.308 126.292 128.613 126.17 128.872 126.276L130.487 127.008L130.076 128.623Z" fill="#7C64BA"/>
<path d="M89.9004 152.176L129.756 127.053C130.243 126.749 131.005 127.129 131.112 127.739L143.544 195.992C143.589 196.282 143.483 196.541 143.254 196.678L103.399 221.801C103.109 221.435 102.652 220.993 102.043 221.115L89.611 152.862C89.5653 152.572 89.6719 152.313 89.9004 152.176Z" fill="#504078"/>
<path d="M144.016 135.555C135.697 134.153 133.656 133.345 130.578 129.796L92.9316 153.562C93.7848 156.259 97.3956 159.824 107.359 159.321L144.016 135.555Z" fill="#FFFAFA"/>
<path d="M146.286 135.814L144.001 134.717C143.712 134.519 143.3 134.549 143.011 134.732L103.612 159.58C103.384 159.717 103.277 159.992 103.323 160.266L115.755 228.519C115.862 229.129 116.623 229.509 117.111 229.205L156.966 204.082C157.195 203.945 157.302 203.671 157.256 203.396L145.327 137.901L146.484 137.764L146.286 135.814Z" fill="#504078"/>
<path d="M105.516 161.271C97.3656 161.911 91.9114 157.326 88.1787 151.871L101.921 221.922C103.582 230.119 117.4 231.871 118.451 230.652L105.516 161.271Z" fill="#8B73CB"/>
<path d="M105.745 160.997L145.601 135.874C146.088 135.57 146.85 135.951 146.957 136.56L159.389 204.813C159.434 205.103 159.328 205.362 159.099 205.499L119.076 230.545C118.589 230.85 117.994 230.561 117.888 229.951L105.456 161.698C105.41 161.408 105.517 161.134 105.745 160.997Z" fill="#7C64BA"/>
<path d="M107.253 163.48L119.228 227.727" stroke="#433878" stroke-width="2.576" stroke-miterlimit="10" stroke-linecap="round" stroke-linejoin="round"/>
<path d="M140.284 165.324L124.531 174.023C121.605 175.638 118.345 174.435 117.294 171.342L116.913 170.23C115.862 167.137 117.4 163.282 120.326 161.652L136.079 152.953C139.004 151.338 142.264 152.542 143.316 155.634L143.697 156.747C144.748 159.839 143.209 163.694 140.284 165.324Z" stroke="#FFFAFA" stroke-width="3.7942" stroke-miterlimit="10"/>
<path d="M67.5654 170.473C71.2219 180.056 77.2551 185.815 82.4351 188.573V179.599C77.1485 176.415 72.1817 169.666 67.5654 159.352V170.473Z" fill="#FFFAFA"/>
<path d="M144.687 240.311L144.732 234.034L149.821 238.331L150.918 235.817L278.513 162.155C280.052 161.271 283.099 161.378 284.882 162.399L340.155 194.118V193.235L348.55 197.318L349.723 196.845L349.571 200.715C349.449 201.553 349.114 201.903 348.596 202.208L215.82 279.069C214.281 279.953 211.569 279.953 209.802 278.917L146.18 242.231C145.204 241.667 144.717 240.982 144.717 240.296L144.687 240.311Z" fill="#2B2B2B"/>
<path d="M215.866 273.905L348.642 197.241C350.181 196.358 349.983 194.789 348.215 193.768L284.593 157.036C282.825 156.015 280.114 155.893 278.575 156.792L145.799 233.455C144.26 234.339 144.459 235.908 146.226 236.929L209.848 273.661C211.631 274.682 214.328 274.788 215.866 273.905Z" fill="#FFFAFA"/>
<path d="M131.371 142.273C129.604 143.294 128.416 145.64 128.721 147.514L142.493 232.678C142.798 234.552 144.474 235.253 146.241 234.232L276.671 158.925C278.438 157.904 279.626 155.558 279.321 153.684L265.549 68.52C265.244 66.6461 263.568 65.9453 261.801 66.966L131.371 142.273Z" fill="#FFFAFA"/>
<path d="M123.48 134.762C123.48 134.717 123.48 134.671 123.48 134.61V134.595V134.579C123.48 134.549 123.48 134.518 123.495 134.473C123.495 134.427 123.51 134.381 123.51 134.336C123.51 134.32 123.51 134.29 123.525 134.275C123.525 134.259 123.525 134.259 123.525 134.244C123.525 134.229 123.525 134.214 123.525 134.199C123.525 134.153 123.541 134.107 123.556 134.061C123.571 134.016 123.571 133.97 123.586 133.924C123.602 133.879 123.602 133.833 123.617 133.787C123.632 133.741 123.647 133.696 123.647 133.65C123.647 133.635 123.647 133.62 123.663 133.62C123.663 133.604 123.663 133.604 123.678 133.589C123.678 133.559 123.693 133.543 123.693 133.513C123.708 133.467 123.723 133.422 123.739 133.376C123.754 133.345 123.769 133.315 123.769 133.269V133.254V133.239C123.784 133.193 123.8 133.147 123.815 133.117C123.83 133.071 123.845 133.041 123.861 132.995C123.861 132.98 123.876 132.965 123.876 132.949C123.876 132.949 123.876 132.934 123.891 132.934C123.891 132.919 123.906 132.904 123.906 132.888C123.922 132.843 123.937 132.797 123.967 132.766C123.998 132.736 124.013 132.675 124.028 132.645V132.629C124.028 132.629 124.028 132.614 124.043 132.614C124.059 132.568 124.089 132.523 124.104 132.477C124.12 132.431 124.15 132.401 124.165 132.355C124.18 132.325 124.196 132.294 124.211 132.279C124.211 132.264 124.226 132.248 124.226 132.248C124.272 132.188 124.302 132.127 124.348 132.05C124.363 132.035 124.379 132.005 124.394 131.989C124.394 131.989 124.394 131.989 124.394 131.974C124.439 131.898 124.5 131.822 124.561 131.746C124.577 131.73 124.577 131.73 124.592 131.715C124.592 131.7 124.607 131.7 124.607 131.685C124.622 131.654 124.653 131.639 124.668 131.609C124.699 131.563 124.729 131.517 124.775 131.487C124.79 131.471 124.805 131.456 124.82 131.441C124.82 131.426 124.836 131.426 124.836 131.411C124.851 131.395 124.866 131.38 124.881 131.365C124.912 131.319 124.958 131.289 124.988 131.243C125.018 131.212 125.049 131.182 125.064 131.152L125.079 131.136L125.095 131.121C125.125 131.075 125.171 131.045 125.217 131.014C125.262 130.969 125.293 130.938 125.338 130.908C125.384 130.877 125.415 130.832 125.46 130.801C125.506 130.771 125.552 130.725 125.582 130.694L125.597 130.679L125.613 130.664C125.643 130.634 125.674 130.618 125.704 130.588C125.75 130.557 125.795 130.527 125.841 130.496C125.856 130.481 125.872 130.481 125.872 130.466C125.872 130.466 125.887 130.466 125.887 130.451C125.917 130.435 125.933 130.42 125.963 130.405C126.009 130.375 126.054 130.344 126.1 130.329C126.115 130.329 129.254 128.516 129.254 128.501L133.124 130.847C133.124 130.847 129.802 132.584 129.757 132.614C129.711 132.645 129.665 132.675 129.619 132.706C129.574 132.736 129.528 132.766 129.482 132.797C129.437 132.827 129.391 132.858 129.36 132.888C129.345 132.904 129.33 132.919 129.315 132.934C129.254 132.995 129.178 133.041 129.117 133.102C129.056 133.163 128.98 133.224 128.919 133.284C128.903 133.3 128.903 133.3 128.888 133.315C128.827 133.376 128.766 133.437 128.705 133.498C128.69 133.513 128.69 133.513 128.675 133.528C128.614 133.589 128.568 133.65 128.507 133.726C128.492 133.741 128.492 133.757 128.477 133.757C128.431 133.818 128.37 133.894 128.324 133.955C128.294 133.985 128.279 134.031 128.248 134.061C128.218 134.107 128.187 134.153 128.157 134.199C128.126 134.244 128.096 134.305 128.065 134.351C128.05 134.381 128.02 134.412 128.005 134.458C127.989 134.488 127.974 134.518 127.959 134.549C127.928 134.61 127.898 134.656 127.867 134.717C127.852 134.732 127.852 134.747 127.837 134.762C127.791 134.838 127.761 134.915 127.73 134.991C127.73 134.991 127.73 135.006 127.715 135.006C127.685 135.082 127.639 135.174 127.608 135.25C127.608 135.265 127.608 135.265 127.593 135.28C127.563 135.356 127.532 135.448 127.502 135.524C127.502 135.539 127.502 135.539 127.487 135.554C127.456 135.631 127.426 135.722 127.41 135.798C127.41 135.813 127.41 135.829 127.395 135.829C127.365 135.905 127.349 135.996 127.334 136.072C127.334 136.088 127.334 136.103 127.319 136.103C127.304 136.179 127.288 136.271 127.273 136.347C127.273 136.362 127.273 136.377 127.273 136.377C127.258 136.453 127.243 136.545 127.243 136.621C127.243 136.636 127.243 136.636 127.243 136.651C127.228 136.728 127.228 136.819 127.228 136.895C127.228 136.941 127.228 136.971 127.228 137.017C127.228 137.063 127.228 137.108 127.228 137.154C127.228 137.2 127.228 137.261 127.228 137.307C127.228 137.352 127.228 137.413 127.243 137.459C127.243 137.52 127.258 137.566 127.258 137.626C127.258 137.672 127.273 137.703 127.273 137.748C127.273 137.748 127.288 137.825 127.304 137.977L127.639 140.079C127.837 139.973 128.248 139.729 128.264 139.714L132.194 141.847C132.194 141.847 131.25 142.395 131.204 142.426C131.158 142.456 131.113 142.486 131.067 142.517C131.021 142.547 130.975 142.578 130.93 142.608C130.884 142.639 130.838 142.669 130.808 142.7C130.793 142.715 130.777 142.73 130.762 142.745C130.701 142.806 130.625 142.852 130.564 142.913C130.503 142.974 130.427 143.035 130.366 143.096C130.351 143.111 130.351 143.111 130.336 143.126C130.275 143.187 130.214 143.248 130.153 143.309C130.137 143.324 130.137 143.324 130.122 143.34C130.061 143.401 130.016 143.462 129.955 143.538C129.939 143.553 129.939 143.568 129.924 143.568C129.878 143.629 129.818 143.705 129.772 143.766C129.741 143.797 129.726 143.842 129.696 143.873C129.665 143.919 129.635 143.964 129.604 144.01C129.574 144.056 129.543 144.117 129.513 144.162C129.498 144.193 129.467 144.223 129.452 144.269C129.437 144.299 129.421 144.33 129.406 144.36C129.376 144.421 129.345 144.467 129.315 144.528C129.3 144.543 129.3 144.558 129.284 144.574C129.239 144.65 129.208 144.726 129.178 144.802C129.178 144.802 129.178 144.817 129.162 144.817C129.132 144.894 129.086 144.985 129.056 145.061C129.056 145.076 129.056 145.076 129.041 145.092C129.01 145.168 128.98 145.259 128.949 145.335C128.949 145.351 128.949 145.351 128.934 145.366C128.903 145.442 128.873 145.533 128.858 145.61C128.858 145.625 128.858 145.64 128.842 145.64C128.812 145.716 128.797 145.808 128.782 145.884C128.782 145.899 128.782 145.914 128.766 145.914C128.751 145.991 128.736 146.082 128.721 146.158C128.721 146.173 128.721 146.189 128.721 146.189C128.705 146.265 128.69 146.356 128.69 146.432C128.69 146.448 128.69 146.448 128.69 146.463C128.69 146.493 128.69 146.524 128.675 146.569L140.863 221.907C140.924 222.303 142.478 224.863 142.128 224.649L141.031 223.72L142.326 231.734C142.387 232.13 143.94 234.689 143.59 234.476L139.949 231.292C139.157 230.622 138.639 229.708 138.471 228.687L125.14 146.326C125.079 145.93 124.973 145.32 124.973 145.32C124.973 145.274 124.958 145.244 124.958 145.198C124.958 145.168 124.958 145.122 124.942 145.092V145.076C124.942 145.061 124.942 145.046 124.942 145.046C124.942 145 124.942 144.939 124.927 144.894C124.927 144.848 124.927 144.817 124.927 144.772V144.756V144.741C124.927 144.696 124.927 144.65 124.927 144.604C124.927 144.558 124.927 144.513 124.927 144.452V144.437V144.421C124.927 144.391 124.927 144.36 124.927 144.33L123.663 136.514C123.602 136.118 123.495 135.509 123.495 135.509C123.495 135.463 123.48 135.433 123.48 135.387C123.48 135.356 123.48 135.311 123.464 135.28V135.265C123.464 135.25 123.464 135.235 123.464 135.235C123.464 135.189 123.464 135.128 123.449 135.082C123.449 135.036 123.449 135.006 123.449 134.96V134.945V134.93C123.48 134.869 123.48 134.808 123.48 134.762Z" fill="#FFFAFA"/>
<path d="M126.862 130.71L129.711 132.355C129.863 132.447 130.046 132.447 130.183 132.355L259.668 57.5965L260.384 57.1851C260.415 57.1699 260.46 57.1394 260.491 57.1242C260.537 57.0937 260.582 57.0785 260.628 57.048C260.735 56.9871 260.841 56.9414 260.948 56.9109C260.963 56.9109 260.963 56.9109 260.978 56.8956C261.085 56.8652 261.176 56.8195 261.283 56.8042C261.298 56.8042 261.298 56.8042 261.314 56.8042C261.42 56.7738 261.512 56.7585 261.618 56.7433H261.634C261.725 56.7281 261.816 56.7281 261.908 56.7281C261.923 56.7281 261.938 56.7281 261.953 56.7281C262.045 56.7281 262.136 56.7281 262.212 56.7433C262.243 56.7433 262.258 56.7433 262.289 56.7585C262.35 56.7738 262.411 56.7738 262.471 56.789C262.517 56.8042 262.578 56.8195 262.624 56.8347C262.67 56.8499 262.7 56.8652 262.746 56.8804C262.852 56.9261 262.959 56.9718 263.05 57.0175L259.257 54.8084C259.165 54.7475 259.059 54.7018 258.952 54.6713C258.937 54.6713 258.937 54.6561 258.922 54.6561H258.906C258.83 54.6256 258.739 54.6104 258.647 54.5799H258.632C258.602 54.5799 258.586 54.5799 258.556 54.5647C258.51 54.5647 258.465 54.5494 258.419 54.5494C258.404 54.5494 258.404 54.5494 258.388 54.5494C258.358 54.5494 258.327 54.5494 258.297 54.5494C258.267 54.5494 258.236 54.5494 258.221 54.5494H258.206C258.145 54.5494 258.084 54.5494 258.023 54.5494H258.008C257.962 54.5494 257.901 54.5647 257.855 54.5647C257.84 54.5647 257.825 54.5647 257.809 54.5647C257.794 54.5647 257.779 54.5647 257.749 54.5799C257.733 54.5799 257.703 54.5799 257.688 54.5951C257.642 54.6104 257.596 54.6104 257.566 54.6256H257.55C257.55 54.6256 257.55 54.6256 257.535 54.6256C257.49 54.6408 257.429 54.6561 257.383 54.6713C257.337 54.6866 257.291 54.7018 257.246 54.717C257.2 54.7323 257.154 54.7475 257.109 54.7627C257.063 54.778 257.017 54.7932 256.972 54.8237C256.926 54.8389 256.88 54.8694 256.834 54.8846C256.789 54.8998 256.743 54.9303 256.697 54.9608C256.682 54.976 256.499 55.0674 256.362 55.1588L256.164 55.2655C256.164 55.2655 256.164 55.2655 256.149 55.2655L126.877 129.902C126.542 130.055 126.542 130.512 126.862 130.71Z" fill="#EDE1E1"/>
<path d="M129.94 132.355C128.173 133.376 126.984 135.722 127.289 137.596L141.062 222.76C141.366 224.634 143.042 225.335 144.809 224.314L275.239 149.007C277.006 147.986 278.194 145.64 277.89 143.766L264.117 58.6019C263.812 56.728 262.136 56.0272 260.369 57.0479L129.94 132.355Z" fill="#2B2B2B"/>
<path d="M134.602 137.84C132.926 138.784 131.783 140.841 132.057 142.41L144.52 213.863C144.794 215.432 146.378 215.95 148.054 214.991L271.765 144.909C273.441 143.964 274.584 141.908 274.309 140.338L261.847 68.8857C261.573 67.3165 259.988 66.7985 258.312 67.7583L134.602 137.84Z" fill="#545454"/>
<path d="M280.007 156.64L146.165 233.882" stroke="#463757" stroke-width="2.4286" stroke-miterlimit="10" stroke-linecap="round" stroke-linejoin="round"/>
<path d="M275.375 175.501C275.573 175.608 275.969 175.562 276.258 175.394L284.394 170.702C284.684 170.534 284.775 170.306 284.577 170.184L279.184 167.076C278.986 166.969 278.589 167.015 278.3 167.183L270.164 171.875C269.875 172.043 269.784 172.271 269.982 172.393L275.375 175.501Z" fill="#DFDFDF"/>
<path d="M265.929 189.517C266.127 189.624 266.523 189.593 266.813 189.411L274.948 184.718C275.238 184.551 275.314 184.322 275.116 184.2L269.723 181.092C269.525 180.986 269.128 181.031 268.839 181.199L260.704 185.891C260.399 186.059 260.323 186.287 260.521 186.394L265.929 189.517Z" fill="#DFDFDF"/>
<path d="M270.713 195.352C270.911 195.459 271.307 195.413 271.597 195.246L279.732 190.553C280.022 190.386 280.113 190.157 279.915 190.05L274.522 186.927C274.324 186.821 273.928 186.866 273.638 187.034L265.502 191.726C265.213 191.894 265.137 192.122 265.32 192.229L270.713 195.352Z" fill="#DFDFDF"/>
<path d="M283.617 196.464C283.815 196.571 284.211 196.525 284.501 196.358L292.636 191.665C292.926 191.498 293.002 191.269 292.819 191.163L287.426 188.055C287.228 187.948 286.832 187.994 286.542 188.161L278.407 192.854C278.117 193.021 278.041 193.25 278.224 193.357L283.617 196.464Z" fill="#DFDFDF"/>
<path d="M306.013 193.204C306.211 193.311 306.607 193.265 306.897 193.098L315.032 188.405C315.322 188.238 315.413 188.009 315.215 187.887L308.877 184.231C308.694 184.124 308.283 184.17 307.994 184.337L299.858 189.03C299.568 189.197 299.492 189.426 299.675 189.533L306.013 193.204Z" fill="#DFDFDF"/>
<path d="M291.981 201.294C292.179 201.401 292.652 201.324 293.033 201.096L303.697 194.941C304.078 194.728 304.231 194.453 304.048 194.332L297.71 190.675C297.527 190.568 297.04 190.66 296.659 190.873L285.994 197.028C285.613 197.257 285.461 197.531 285.644 197.638L291.981 201.294Z" fill="#DFDFDF"/>
<path d="M221.944 241.774C222.112 241.865 222.478 241.804 222.767 241.637L230.903 236.944C231.192 236.777 231.314 236.563 231.147 236.472L228.8 235.116C228.633 235.025 228.267 235.085 227.962 235.253L219.827 239.946C219.537 240.113 219.431 240.326 219.583 240.418L221.944 241.774Z" fill="#DFDFDF"/>
<path d="M211.067 248.218C211.234 248.309 211.6 248.249 211.889 248.081L220.025 243.389C220.314 243.221 220.436 243.008 220.269 242.916L217.922 241.56C217.755 241.469 217.389 241.53 217.085 241.698L208.949 246.39C208.659 246.557 208.553 246.771 208.705 246.862L211.067 248.218Z" fill="#DFDFDF"/>
<path d="M199.533 254.724C199.686 254.815 200.051 254.754 200.356 254.586L208.492 249.894C208.781 249.726 208.903 249.513 208.751 249.422L206.496 248.111C206.344 248.02 205.963 248.096 205.673 248.264L197.538 252.956C197.248 253.124 197.126 253.337 197.294 253.429L199.533 254.724Z" fill="#DFDFDF"/>
<path d="M206.633 245.735C206.785 245.826 207.151 245.765 207.456 245.598L215.591 240.905C215.881 240.738 216.003 240.524 215.85 240.433L213.596 239.123C213.443 239.031 213.062 239.108 212.773 239.275L204.637 243.968C204.348 244.135 204.226 244.348 204.393 244.44L206.633 245.735Z" fill="#DFDFDF"/>
<path d="M236.007 233.592C236.205 233.699 236.601 233.653 236.891 233.486L289.849 202.924C290.138 202.757 290.229 202.528 290.031 202.406L283.694 198.75C283.511 198.643 283.099 198.689 282.81 198.856L229.852 229.418C229.562 229.586 229.471 229.814 229.669 229.936L236.007 233.592Z" fill="#DFDFDF"/>
<path d="M293.443 199.283C293.458 199.283 293.489 199.283 293.534 199.252L299.75 195.657C299.781 195.642 299.796 195.611 299.796 195.611L299.4 195.383C299.385 195.383 299.354 195.383 299.309 195.413L293.093 199.009C293.062 199.024 293.047 199.054 293.047 199.054L293.443 199.283Z" fill="#DFDFDF"/>
<path d="M309.38 189.395C309.395 189.395 309.411 189.395 309.426 189.395L312.062 187.872C312.077 187.857 312.077 187.857 312.062 187.841L311.666 187.613C311.65 187.613 311.635 187.613 311.62 187.613L308.984 189.136C308.969 189.152 308.969 189.152 308.984 189.167L309.38 189.395Z" fill="#DFDFDF"/>
<path d="M272.465 202.909C272.663 203.016 273.059 202.97 273.349 202.802L281.484 198.11C281.774 197.942 281.865 197.714 281.667 197.592L276.274 194.484C276.076 194.377 275.679 194.423 275.39 194.591L267.254 199.283C266.965 199.451 266.889 199.679 267.072 199.801L272.465 202.909Z" fill="#DFDFDF"/>
<path d="M261.267 209.369C261.465 209.475 261.861 209.43 262.15 209.262L270.286 204.57C270.576 204.402 270.667 204.173 270.469 204.052L265.076 200.944C264.878 200.837 264.481 200.883 264.192 201.05L256.056 205.743C255.767 205.91 255.69 206.139 255.873 206.245L261.267 209.369Z" fill="#DFDFDF"/>
<path d="M250.054 215.828C250.252 215.935 250.648 215.889 250.937 215.722L259.073 211.029C259.363 210.862 259.439 210.633 259.256 210.526L253.863 207.419C253.665 207.312 253.268 207.358 252.979 207.525L244.843 212.218C244.554 212.385 244.478 212.614 244.66 212.72L250.054 215.828Z" fill="#DFDFDF"/>
<path d="M238.855 222.303C239.053 222.41 239.45 222.364 239.739 222.197L247.874 217.504C248.164 217.337 248.255 217.108 248.057 216.986L242.664 213.878C242.466 213.772 242.07 213.817 241.78 213.985L233.645 218.677C233.356 218.845 233.279 219.073 233.462 219.18L238.855 222.303Z" fill="#DFDFDF"/>
<path d="M227.642 228.763C227.841 228.87 228.237 228.824 228.526 228.656L236.662 223.964C236.951 223.796 237.027 223.568 236.845 223.461L231.451 220.353C231.253 220.246 230.857 220.292 230.568 220.46L222.432 225.152C222.143 225.32 222.051 225.548 222.249 225.67L227.642 228.763Z" fill="#DFDFDF"/>
<path d="M216.429 235.223C216.627 235.329 217.023 235.284 217.312 235.116L225.448 230.424C225.738 230.256 225.829 230.027 225.631 229.906L220.238 226.798C220.04 226.691 219.643 226.737 219.354 226.904L211.218 231.597C210.929 231.764 210.853 231.993 211.035 232.115L216.429 235.223Z" fill="#DFDFDF"/>
<path d="M191.2 249.787C191.398 249.894 191.794 249.848 192.084 249.681L214.251 236.883C214.541 236.716 214.617 236.487 214.434 236.38L209.041 233.272C208.843 233.166 208.446 233.212 208.157 233.379L185.99 246.177C185.7 246.344 185.624 246.573 185.807 246.695L191.2 249.787Z" fill="#DFDFDF"/>
<path d="M259.561 201.142C259.759 201.248 260.139 201.203 260.444 201.035L268.58 196.343C268.869 196.175 268.961 195.947 268.763 195.84L263.369 192.717C263.171 192.61 262.775 192.656 262.486 192.823L254.35 197.516C254.061 197.683 253.984 197.912 254.167 198.018L259.561 201.142Z" fill="#DFDFDF"/>
<path d="M248.348 208.241C248.546 208.348 248.942 208.302 249.231 208.135L257.367 203.442C257.656 203.275 257.733 203.046 257.55 202.939L252.156 199.816C251.958 199.71 251.562 199.755 251.273 199.923L243.137 204.615C242.848 204.783 242.772 205.011 242.954 205.118L248.348 208.241Z" fill="#DFDFDF"/>
<path d="M237.149 214.716C237.347 214.823 237.744 214.777 238.033 214.609L246.169 209.917C246.458 209.749 246.55 209.521 246.352 209.399L240.958 206.276C240.76 206.169 240.364 206.215 240.075 206.383L231.939 211.075C231.649 211.242 231.573 211.471 231.756 211.578L237.149 214.716Z" fill="#DFDFDF"/>
<path d="M225.936 221.176C226.135 221.282 226.531 221.237 226.82 221.069L234.956 216.377C235.245 216.209 235.337 215.981 235.139 215.874L229.745 212.751C229.547 212.644 229.151 212.69 228.862 212.857L220.726 217.55C220.437 217.717 220.36 217.946 220.543 218.053L225.936 221.176Z" fill="#DFDFDF"/>
<path d="M214.723 227.635C214.921 227.742 215.317 227.696 215.606 227.529L223.742 222.836C224.032 222.669 224.123 222.44 223.925 222.334L218.532 219.21C218.334 219.104 217.953 219.15 217.648 219.317L209.512 224.01C209.223 224.177 209.147 224.406 209.329 224.512L214.723 227.635Z" fill="#DFDFDF"/>
<path d="M203.525 234.11C203.723 234.217 204.12 234.171 204.409 234.004L212.545 229.311C212.834 229.144 212.925 228.915 212.727 228.793L207.334 225.67C207.136 225.564 206.74 225.609 206.451 225.777L198.315 230.469C198.025 230.637 197.949 230.865 198.132 230.972L203.525 234.11Z" fill="#DFDFDF"/>
<path d="M192.327 240.57C192.525 240.677 192.921 240.631 193.211 240.463L201.347 235.771C201.636 235.603 201.712 235.375 201.529 235.268L196.136 232.145C195.938 232.038 195.557 232.084 195.252 232.252L187.117 236.944C186.827 237.112 186.751 237.34 186.934 237.447L192.327 240.57Z" fill="#DFDFDF"/>
<path d="M254.777 195.962C254.975 196.068 255.371 196.023 255.661 195.855L263.796 191.163C264.086 190.995 264.162 190.767 263.964 190.66L258.57 187.552C258.372 187.445 257.976 187.491 257.687 187.659L249.551 192.351C249.262 192.519 249.186 192.747 249.368 192.854L254.777 195.962Z" fill="#DFDFDF"/>
<path d="M243.578 202.421C243.776 202.528 244.172 202.482 244.462 202.315L252.597 197.622C252.887 197.455 252.978 197.226 252.78 197.104L247.387 193.996C247.189 193.89 246.793 193.935 246.503 194.103L238.368 198.795C238.078 198.963 238.002 199.192 238.185 199.298L243.578 202.421Z" fill="#DFDFDF"/>
<path d="M232.366 208.881C232.564 208.988 232.96 208.942 233.249 208.774L241.385 204.082C241.675 203.914 241.751 203.686 241.553 203.579L236.159 200.471C235.961 200.365 235.565 200.41 235.276 200.578L227.14 205.27C226.851 205.438 226.759 205.666 226.957 205.773L232.366 208.881Z" fill="#DFDFDF"/>
<path d="M221.168 215.356C221.366 215.463 221.762 215.432 222.052 215.249L230.187 210.557C230.477 210.389 230.568 210.161 230.37 210.039L224.977 206.931C224.779 206.824 224.383 206.87 224.093 207.038L215.957 211.73C215.668 211.898 215.592 212.126 215.775 212.233L221.168 215.356Z" fill="#DFDFDF"/>
<path d="M209.954 221.816C210.152 221.922 210.548 221.877 210.838 221.724L218.973 217.032C219.263 216.864 219.339 216.636 219.156 216.514L213.763 213.406C213.565 213.299 213.184 213.345 212.879 213.513L204.744 218.205C204.454 218.373 204.378 218.601 204.561 218.708L209.954 221.816Z" fill="#DFDFDF"/>
<path d="M198.756 228.291C198.954 228.397 199.35 228.352 199.639 228.184L207.775 223.492C208.065 223.324 208.141 223.095 207.943 222.974L202.565 219.866C202.367 219.759 201.97 219.805 201.681 219.972L193.545 224.665C193.256 224.832 193.164 225.061 193.362 225.183L198.756 228.291Z" fill="#DFDFDF"/>
<path d="M187.543 234.75C187.741 234.857 188.137 234.811 188.427 234.644L196.562 229.951C196.852 229.784 196.928 229.555 196.745 229.433L191.352 226.325C191.154 226.219 190.758 226.264 190.468 226.432L182.332 231.124C182.043 231.292 181.967 231.52 182.15 231.627L187.543 234.75Z" fill="#DFDFDF"/>
<path d="M277.141 183.058C277.34 183.164 277.736 183.119 278.025 182.951L291.828 174.983C292.118 174.815 292.209 174.587 292.011 174.465L286.618 171.357C286.42 171.25 286.024 171.296 285.734 171.464L271.931 179.432C271.642 179.599 271.55 179.828 271.748 179.934L277.141 183.058Z" fill="#DFDFDF"/>
<path d="M168.926 236.929C169.124 237.036 169.52 236.99 169.809 236.822L183.613 228.854C183.902 228.687 183.978 228.458 183.795 228.352L178.402 225.244C178.204 225.137 177.808 225.183 177.518 225.35L163.715 233.318C163.426 233.486 163.334 233.714 163.532 233.836L168.926 236.929Z" fill="#DFDFDF"/>
<path d="M281.91 188.877C282.108 188.984 282.504 188.938 282.794 188.771L299.248 179.279C299.538 179.112 299.629 178.883 299.431 178.777L294.038 175.653C293.839 175.547 293.443 175.592 293.154 175.76L276.7 185.251C276.41 185.419 276.334 185.648 276.517 185.754L281.91 188.877Z" fill="#DFDFDF"/>
<path d="M294.814 190.005C295.012 190.111 295.409 190.066 295.698 189.898L306.667 183.576C306.957 183.408 307.033 183.179 306.85 183.058L301.457 179.95C301.259 179.843 300.863 179.889 300.573 180.056L289.604 186.379C289.315 186.546 289.238 186.775 289.421 186.897L294.814 190.005Z" fill="#DFDFDF"/>
<path d="M264.177 181.961C264.375 182.067 264.771 182.022 265.06 181.854L273.196 177.162C273.486 176.994 273.577 176.765 273.379 176.644L267.986 173.536C267.787 173.429 267.391 173.475 267.102 173.642L258.966 178.335C258.677 178.502 258.585 178.731 258.783 178.853L264.177 181.961Z" fill="#DFDFDF"/>
<path d="M253.01 188.405C253.208 188.512 253.604 188.466 253.893 188.298L262.029 183.606C262.318 183.438 262.395 183.21 262.212 183.088L256.819 179.98C256.62 179.873 256.224 179.919 255.935 180.087L247.799 184.779C247.51 184.947 247.418 185.175 247.616 185.297L253.01 188.405Z" fill="#DFDFDF"/>
<path d="M241.812 194.865C242.01 194.972 242.406 194.941 242.695 194.758L250.831 190.066C251.12 189.898 251.196 189.67 251.014 189.563L245.62 186.455C245.422 186.348 245.026 186.394 244.737 186.562L236.601 191.254C236.312 191.422 236.235 191.65 236.418 191.757L241.812 194.865Z" fill="#DFDFDF"/>
<path d="M230.613 201.324C230.811 201.431 231.207 201.385 231.497 201.218L239.633 196.525C239.922 196.358 240.013 196.129 239.815 196.007L234.422 192.899C234.224 192.793 233.828 192.838 233.538 193.006L225.403 197.698C225.113 197.866 225.022 198.095 225.22 198.216L230.613 201.324Z" fill="#DFDFDF"/>
<path d="M219.4 207.799C219.599 207.906 219.979 207.876 220.284 207.693L228.42 203C228.709 202.833 228.8 202.604 228.602 202.482L223.209 199.374C223.011 199.268 222.615 199.313 222.326 199.481L214.19 204.173C213.901 204.341 213.824 204.57 214.022 204.676L219.4 207.799Z" fill="#DFDFDF"/>
<path d="M208.187 214.259C208.385 214.366 208.781 214.32 209.071 214.152L217.207 209.46C217.496 209.292 217.572 209.064 217.374 208.957L211.981 205.849C211.783 205.743 211.387 205.788 211.097 205.956L202.961 210.648C202.672 210.816 202.596 211.044 202.779 211.151L208.187 214.259Z" fill="#DFDFDF"/>
<path d="M196.989 220.734C197.187 220.841 197.583 220.795 197.873 220.627L206.008 215.935C206.298 215.767 206.389 215.539 206.191 215.417L200.798 212.309C200.6 212.202 200.204 212.248 199.914 212.416L191.779 217.108C191.489 217.276 191.398 217.504 191.596 217.626L196.989 220.734Z" fill="#DFDFDF"/>
<path d="M185.791 227.194C185.989 227.3 186.385 227.255 186.674 227.087L194.825 222.395C195.115 222.227 195.191 221.999 194.993 221.892L189.6 218.784C189.402 218.677 189.006 218.723 188.716 218.891L180.565 223.583C180.276 223.751 180.199 223.979 180.397 224.086L185.791 227.194Z" fill="#DFDFDF"/>
<path d="M179.271 232.892C179.408 232.815 179.575 232.754 179.743 232.739C179.91 232.724 180.048 232.739 180.139 232.8L185.532 235.908C185.624 235.954 185.669 236.045 185.624 236.137C185.593 236.243 185.487 236.335 185.349 236.411L183.232 237.63L190.301 241.713C190.392 241.758 190.423 241.85 190.392 241.941C190.362 242.048 190.255 242.139 190.118 242.215L184.633 245.384C184.496 245.461 184.329 245.521 184.161 245.537C183.993 245.552 183.841 245.537 183.75 245.491L170.937 238.087C170.845 238.041 170.815 237.95 170.845 237.858C170.876 237.752 170.983 237.66 171.12 237.584L179.271 232.892Z" fill="#DFDFDF"/>
<path d="M296.278 187.384C296.293 187.384 296.324 187.384 296.369 187.354L302.585 183.758C302.616 183.743 302.631 183.713 302.631 183.713L302.235 183.484C302.22 183.484 302.189 183.484 302.143 183.515L295.928 187.11C295.897 187.125 295.882 187.156 295.882 187.156L296.278 187.384Z" fill="#DFDFDF"/>
<path d="M263.826 239.458L293.215 222.974C293.55 222.776 293.55 222.456 293.2 222.258L280.707 215.067C280.357 214.868 279.793 214.853 279.458 215.051L250.069 231.536C249.734 231.734 249.734 232.054 250.084 232.252L262.577 239.443C262.927 239.641 263.491 239.641 263.826 239.458Z" fill="#DFDFDF"/>
<path d="M154.467 206.352L262.409 144.025C264.192 142.989 265.319 140.216 264.923 137.809L255.538 80.2358C255.142 77.8287 253.39 76.7318 251.607 77.7525L143.665 140.079C141.883 141.115 140.755 143.888 141.152 146.295L150.536 203.869C150.917 206.261 152.685 207.373 154.467 206.352Z" fill="#FFFAFA"/>
<path d="M142.203 152.724L141.06 145.686C140.725 143.614 142.127 140.978 144.199 139.775L251.089 78.0571C253.161 76.8536 255.112 77.5696 255.447 79.6263L256.589 86.665L142.203 152.724Z" fill="#7C7C7C"/>
<path d="M163.38 134.839C163.578 135.707 164.34 136.073 165.086 135.631C165.833 135.204 166.275 134.153 166.077 133.285C165.879 132.416 165.117 132.05 164.37 132.492C163.639 132.919 163.197 133.97 163.38 134.839Z" fill="white"/>
<path d="M157.942 137.977C158.14 138.845 158.901 139.211 159.648 138.769C160.395 138.343 160.836 137.291 160.638 136.423C160.44 135.555 159.678 135.189 158.932 135.631C158.201 136.057 157.759 137.109 157.942 137.977Z" fill="white"/>
<path d="M155.094 140.774C155.44 139.834 155.163 138.867 154.476 138.614C153.789 138.362 152.952 138.919 152.606 139.859C152.261 140.799 152.537 141.765 153.225 142.018C153.912 142.27 154.749 141.713 155.094 140.774Z" fill="white"/>
<path d="M495.845 228.26L497.064 370.023H240.943L495.845 228.26Z" fill="#F8F8F8"/>
<path d="M495.434 210.496L492.371 248.264L291.281 370.023H238.841L495.434 210.496Z" fill="#EAEAEA"/>
<path d="M234.438 112.915L237.012 115.094L239.511 109" stroke="white" stroke-width="2.9823" stroke-miterlimit="10" stroke-linecap="round" stroke-linejoin="round"/>
<path opacity="0.34" d="M279 202.589C279.259 200.959 282.535 199.633 286.816 198.613C285.338 198.14 284.287 197.196 284.089 195.535C284.089 195.535 286.648 194.682 289.848 193.875C289.208 193.341 288.796 192.595 288.675 191.605C288.675 191.605 296.886 188.862 302.249 188.634C304.108 188.466 308.343 188.299 313.508 189.578C318.703 190.873 320.471 193.067 331.989 200.075L392.777 213.574L384.779 243.328L324.645 217.062L317.149 218.007L303.057 214.518C303.057 214.518 295.134 215.082 294.662 211.776C294.129 208.089 303.392 209.597 303.392 209.597L310.202 210.496C312.152 210.481 313.036 210.511 313.356 208.637C313.554 207.525 312.137 206.764 312.091 206.55C311.985 206.063 295.622 203.305 295.622 203.305C295.622 203.305 277.949 209.094 279 202.589Z" fill="#DFDFDF"/>
<path opacity="0.34" d="M301.869 300.353C266.964 296.056 205.368 255.653 205.368 255.653L222.782 241.423L296.795 273.371L301.869 300.353Z" fill="#DFDFDF"/>
<path d="M340.277 292.385C331.714 300.018 329.17 305.03 316.616 303.385C300.269 301.237 245.482 271.086 231.116 259.812C225.494 255.394 229.943 240.936 236.631 243.541C252.597 249.772 298.44 269.502 313.432 271.818C314.742 272.016 327.327 271.086 327.936 270.736C329.094 270.096 352.13 281.827 340.277 292.385Z" fill="#FCE0E0"/>
<path d="M429.419 181.778L408.364 142.867C405.377 134.442 402.437 127.678 394.027 130.679L391.529 131.563C383.103 134.549 374.617 144.117 377.603 152.542L394.667 193.951C397.668 202.361 432.405 190.203 429.419 181.778Z" fill="#FCE0E0"/>
<path d="M295.622 193.25C295.622 193.25 277.949 199.055 279 192.549C279.259 190.919 282.535 189.594 286.816 188.573C285.338 188.1 284.287 187.156 284.089 185.495C284.089 185.495 286.648 184.642 289.848 183.835C289.208 183.301 288.796 182.555 288.675 181.565C288.675 181.565 296.886 178.822 302.249 178.594C304.108 178.426 308.343 178.259 313.508 179.538C318.825 180.864 320.562 183.134 332.872 190.553C332.872 190.553 332.415 190.965 331.699 191.544C333.984 192.656 335.417 195.078 335.203 197.699L335.173 198.003C334.792 202.528 331.303 206.169 326.809 206.733L317.119 207.952L303.026 204.463C303.026 204.463 295.104 205.027 294.632 201.721C294.098 198.034 303.361 199.542 303.361 199.542L310.172 200.441C312.122 200.426 313.005 200.456 313.325 198.582C313.523 197.47 312.106 196.708 312.061 196.495C311.985 195.992 295.622 193.25 295.622 193.25Z" fill="#FCE0E0"/>
<path d="M286.815 188.558L296.581 186.12L313.447 191.346" stroke="#F2C8C8" stroke-width="3.6829" stroke-miterlimit="10"/>
<path d="M289.848 183.835C290.411 183.362 299.751 180.955 299.751 180.955L316.616 186.181" stroke="#F2C8C8" stroke-width="3.6829" stroke-miterlimit="10"/>
<path d="M332.004 190.035L392.793 203.534L384.779 233.273L322.665 206.139L332.004 190.035Z" fill="#FCE0E0"/>
<path d="M370.412 201.446C378.791 197.683 385.967 193.265 392.579 188.603C430.576 184.261 428.443 166.238 428.443 166.238C446.314 159.169 459.355 171.19 468.999 198.643C473.585 211.7 485.789 274.377 485.789 274.377C485.789 274.392 493.224 359.48 485.667 362.177L382.31 368.439C382.31 368.439 385.418 336.993 383.453 314.765C382.448 303.339 367.334 276.693 362.87 269.243C362.566 268.74 357.858 276.403 357.705 276.007C354.902 268.71 355.694 261.458 359.351 253.84C352.373 238.818 345.014 212.873 370.412 201.446Z" fill="#EEEEEE"/>
<path d="M392.946 242.383L342.121 293.009C325.667 305.06 303.682 277.988 316.434 266.957L357.722 210.496C365.583 200.852 380.742 200.654 387.08 207.738C393.692 215.112 400.579 233.989 392.946 242.383Z" fill="#EEEEEE"/>
<path d="M201.895 219.47C201.849 219.515 200.92 220.612 201.438 222.242C201.438 222.258 201.438 222.273 201.453 222.273C202.397 225.198 207.227 227.758 215.835 229.921C216.125 230.058 217.1 230.759 218.44 231.734C215.515 231.231 212.026 231.582 209.619 232.77C200.066 237.493 196.684 241.53 196.547 241.698L196.364 241.926L196.41 242.216C196.425 242.322 196.608 243.313 197.812 243.861C200.143 244.927 204.546 243.434 210.884 239.443C212.59 238.376 214.784 238.239 217.435 239.032C215.683 238.818 213.976 239.092 212.59 239.808C208.263 242.079 200.264 248.691 199.929 248.98L199.609 249.239L199.701 249.635C199.716 249.742 199.975 250.625 201.118 251.067C201.514 251.22 201.971 251.296 202.489 251.311C202.352 251.387 202.276 251.433 202.276 251.433L201.697 251.768L202.047 252.347C204.607 256.613 209.33 254.023 212.788 252.134C213.23 251.89 213.672 251.646 214.083 251.433C215.698 250.58 218.166 249.97 219.766 251.052C224.199 254.038 227.246 256.537 228.343 258.106C228.617 258.487 231.527 261.183 231.908 261.61C239.191 269.639 249.109 260.604 246.808 249.848C238.2 241.393 227.658 227.194 220.817 225.198L220.726 225.137L202.184 219.089L201.895 219.47Z" fill="#FCE0E0"/>
<path d="M203.297 251.052L217.831 243.495L225.327 247.502" stroke="#F2C8C8" stroke-width="3.6829" stroke-miterlimit="10"/>
<path d="M217.404 239.047L222.782 241.423" stroke="#F2C8C8" stroke-width="3.6829" stroke-miterlimit="10"/>
<path d="M378.563 197.409C411.807 190.797 432.268 212.995 435.178 164.456C435.178 164.456 426.082 163.541 423.279 168.417C418.373 176.979 418.023 181.686 404.189 181.58C397.029 181.534 387.857 181.199 385.77 184.718L378.563 197.409Z" fill="white"/>
<path d="M358.574 276.327L342.12 292.705C336.148 297.077 329.444 296.3 323.944 292.994C335.234 292.232 340.84 284.584 353.882 271.924C355.999 269.883 358.574 276.327 358.574 276.327Z" fill="#D9D9D9"/>
<path d="M355.467 103.82C355.467 103.82 348.017 113.068 349.906 123.275C350.271 125.225 351.277 130.055 351.825 132.294C353.12 137.642 351.825 137.931 350.241 143.34C350.058 143.949 348.733 145.93 347.194 149.845C346.92 150.531 346.935 151.308 347.24 151.993C347.879 153.441 349.403 155.589 352.938 155.056C354.476 154.827 354.766 157.188 355.588 160.571C356.883 165.918 359.169 171.357 362.079 173.14C367.67 176.583 387.171 169.468 387.171 169.468L392.854 134.503L355.467 103.82Z" fill="#FCE0E0"/>
<path d="M388.436 178.761C388.436 178.761 391.742 169.636 390.051 165.446C388.786 167.533 387.217 169.361 385.008 170.474L388.436 178.761Z" fill="#F2C8C8"/>
<path d="M363.983 272.473C363.983 272.473 381.641 302.638 382.753 311.398C383.865 320.159 382.341 368.439 382.341 368.439L392.808 368.362L407.678 323.129L383.697 251.022C382.204 246.527 375.943 253.322 372.438 256.521L353.044 272.655L358.574 276.342L363.983 272.473Z" fill="#D9D9D9"/>
<path d="M356.32 151.551C356.32 151.551 356.655 153.441 355.178 154.629" stroke="#F2C8C8" stroke-width="3.9584" stroke-miterlimit="10" stroke-linecap="round" stroke-linejoin="round"/>
<path d="M383.926 249.422C383.926 249.422 405.545 219.698 378.563 198.643" stroke="#D9D9D9" stroke-width="4.8571" stroke-miterlimit="10" stroke-linecap="round" stroke-linejoin="round"/>
<path d="M411.106 151.018C414.107 150.043 416.21 147.331 416.378 144.178C416.88 134.96 417.139 115.734 411.746 103.774C404.448 87.5945 364.212 110.188 364.212 110.188L390.249 152.1C390.676 152.786 391.422 153.471 392.336 154.065C396.16 156.594 401.127 156.64 405.134 154.385L411.106 151.018Z" fill="#2B2B2B"/>
<path d="M350.424 126.048C350.515 127.099 336.545 99.9958 364.349 89.3008C408.973 72.146 413.194 109.091 413.194 109.091C413.194 109.091 396.496 125.088 372.241 116.343C366.482 120.959 354.05 121.371 350.439 118.4C350.454 118.4 349.921 120.06 350.424 126.048Z" fill="#2B2B2B"/>
<path d="M388.598 149.422C392.337 149.101 394.991 144.451 394.526 139.036C394.061 133.62 390.653 129.49 386.914 129.811C383.176 130.132 380.521 134.783 380.986 140.198C381.451 145.613 384.859 149.743 388.598 149.422Z" fill="#FCE0E0"/>
<path d="M398.75 342.341L383.027 338.684L382.981 314.491L310.537 358.353L354.08 370.023H392.792L398.75 342.341Z" fill="#2A2A2A"/>
<path d="M435.543 343.438C413.102 347.567 390.31 352.152 378.121 343.438C372.515 339.675 377.223 335.15 380.94 337.054C396.373 342.905 414.564 338.989 435.528 336.094C437.356 336.094 438.849 337.587 438.849 339.416V340.101C438.865 341.96 437.372 343.438 435.543 343.438Z" fill="black"/>
<path d="M345.868 289.216C345.868 289.216 325.269 273.311 322.664 263.393C320.074 253.474 313.294 264.733 313.294 264.733C313.294 264.733 308.069 279.13 315.61 287.114C323.167 295.097 331.638 308.976 345.868 289.216Z" fill="#D9D9D9"/>
<path opacity="0.34" d="M229.485 337.481L251.561 324.744C252.948 323.937 252.78 322.52 251.165 321.591L209.375 297.458C207.76 296.529 205.307 296.422 203.921 297.229L181.845 309.966C180.458 310.774 180.626 312.19 182.241 313.12L224.031 337.252C225.646 338.182 228.099 338.273 229.485 337.481Z" fill="#D7D7D7"/>
<path d="M176.497 311.947V311.916V311.901L176.589 309.92L178.143 310.179L199.518 297.839C200.904 297.031 203.372 297.138 204.972 298.067L245.848 321.667L248.195 322.063L248.103 323.982C248.103 324.5 247.799 324.988 247.174 325.354L225.098 338.09C223.712 338.898 221.243 338.791 219.644 337.862L177.853 313.729C176.939 313.242 176.482 312.571 176.497 311.947Z" fill="#FFFAFA"/>
<path d="M225.158 336.186L247.234 323.449C248.621 322.642 248.453 321.225 246.838 320.296L205.048 296.163C203.433 295.234 200.98 295.127 199.593 295.935L177.517 308.671C176.131 309.479 176.299 310.895 177.914 311.825L219.704 335.957C221.319 336.887 223.772 336.993 225.158 336.186Z" fill="black"/>
<path d="M219.523 335.866L247.038 320.417L204.744 296.011L177.61 311.642L219.523 335.866Z" fill="#2B2B2B"/>
<path d="M140.512 321.941L196.075 289.871V286.611L118.01 244.805L62.4619 273.63V276.875L140.512 321.941Z" fill="#2B2B2B"/>
<path d="M140.512 318.696L196.075 286.611L118.01 241.545L62.4619 273.63L140.512 318.696Z" fill="#545454"/>
<path d="M81.2469 356.433L138.532 323.358V320.006L58.0435 276.906L0.758789 306.614V309.981L81.2469 356.433Z" fill="#2B2B2B"/>
<path d="M81.2469 353.081L138.532 320.006L58.0435 273.554L0.758789 306.614L81.2469 353.081Z" fill="#545454"/>
<path d="M59.7196 279.803H61.9287V278.326H59.7196V279.803Z" fill="#DD4078"/>
<path d="M82.9844 348.374C82.9844 348.374 108.077 334.662 131.981 319.519C132.073 319.458 131.981 314.689 131.981 314.689C119.778 306.95 61.1979 277.637 61.1979 277.637L11.668 306.447L82.9844 348.374Z" fill="#DDDDDD"/>
<path d="M82.9844 343.544C82.9844 343.544 108.077 329.833 131.981 314.689C132.743 314.125 61.1979 272.823 61.1979 272.823L11.668 301.632L82.9844 343.544Z" fill="white"/>
<path d="M140.375 314.674C140.375 314.674 165.468 300.962 189.372 285.818C189.463 285.758 189.372 280.989 189.372 280.989C177.168 273.249 118.589 243.937 118.589 243.937L69.0586 267.917V272.747L140.375 314.674Z" fill="#DDDDDD"/>
<path d="M140.375 309.859C140.375 309.859 165.468 296.148 189.372 281.004C190.133 280.44 118.589 239.138 118.589 239.138L69.0586 267.948L140.375 309.859Z" fill="white"/>
<path d="M13.1601 300.749L5.55762 305.076L17.3345 311.642L32.9965 312.297L13.1601 300.749Z" fill="#FFFAFA"/>
<path d="M33.4537 301.937L61.9894 285.468L55.6363 281.796L27.1006 298.266L33.4537 301.937Z" stroke="#DEDEDE" stroke-width="2.7858" stroke-miterlimit="10" stroke-linecap="round" stroke-linejoin="round"/>
<path d="M84.0805 334.83L88.8644 332.072L84.111 329.33L79.3271 332.088L84.0805 334.83Z" stroke="#DEDEDE" stroke-width="2.7858" stroke-miterlimit="10" stroke-linecap="round" stroke-linejoin="round"/>
<path d="M108.807 315.1L86.7314 327.654" stroke="#DEDEDE" stroke-width="2.7858" stroke-miterlimit="10" stroke-linecap="round" stroke-linejoin="round"/>
<path d="M103.003 323.221L90.3574 330.396" stroke="#DEDEDE" stroke-width="2.7858" stroke-miterlimit="10" stroke-linecap="round" stroke-linejoin="round"/>
<path d="M75.7319 329.939L80.5005 327.167L75.7624 324.424L70.9785 327.197L75.7319 329.939Z" stroke="#DEDEDE" stroke-width="2.7858" stroke-miterlimit="10" stroke-linecap="round" stroke-linejoin="round"/>
<path d="M100.459 310.21L78.3828 322.748" stroke="#DEDEDE" stroke-width="2.7858" stroke-miterlimit="10" stroke-linecap="round" stroke-linejoin="round"/>
<path d="M94.6541 318.33L82.0088 325.506" stroke="#DEDEDE" stroke-width="2.7858" stroke-miterlimit="10" stroke-linecap="round" stroke-linejoin="round"/>
<path d="M67.3823 325.034L72.151 322.276L67.3976 319.534L62.6289 322.291L67.3823 325.034Z" stroke="#DEDEDE" stroke-width="2.7858" stroke-miterlimit="10" stroke-linecap="round" stroke-linejoin="round"/>
<path d="M92.0935 305.319L70.0176 317.858" stroke="#DEDEDE" stroke-width="2.7858" stroke-miterlimit="10" stroke-linecap="round" stroke-linejoin="round"/>
<path d="M86.2893 313.44L73.6592 320.615" stroke="#DEDEDE" stroke-width="2.7858" stroke-miterlimit="10" stroke-linecap="round" stroke-linejoin="round"/>
<path d="M59.0185 320.143L63.8023 317.386L59.0489 314.643L54.2803 317.401L59.0185 320.143Z" stroke="#DEDEDE" stroke-width="2.7858" stroke-miterlimit="10" stroke-linecap="round" stroke-linejoin="round"/>
<path d="M83.7449 300.429L61.6689 312.967" stroke="#DEDEDE" stroke-width="2.7858" stroke-miterlimit="10" stroke-linecap="round" stroke-linejoin="round"/>
<path d="M77.9406 308.534L65.3105 315.725" stroke="#DEDEDE" stroke-width="2.7858" stroke-miterlimit="10" stroke-linecap="round" stroke-linejoin="round"/>
<path d="M50.6694 315.253L55.4533 312.495L50.6999 309.753L45.916 312.511L50.6694 315.253Z" stroke="#DEDEDE" stroke-width="2.7858" stroke-miterlimit="10" stroke-linecap="round" stroke-linejoin="round"/>
<path d="M75.3963 295.539L53.3203 308.077" stroke="#DEDEDE" stroke-width="2.7858" stroke-miterlimit="10" stroke-linecap="round" stroke-linejoin="round"/>
<path d="M69.592 303.644L56.9619 310.819" stroke="#DEDEDE" stroke-width="2.7858" stroke-miterlimit="10" stroke-linecap="round" stroke-linejoin="round"/>
<path d="M42.3208 310.362L47.1046 307.605L42.3512 304.862L37.5674 307.62L42.3208 310.362Z" stroke="#DEDEDE" stroke-width="2.7858" stroke-miterlimit="10" stroke-linecap="round" stroke-linejoin="round"/>
<path d="M67.0476 290.633L44.9717 303.187" stroke="#DEDEDE" stroke-width="2.7858" stroke-miterlimit="10" stroke-linecap="round" stroke-linejoin="round"/>
<path d="M61.243 298.753L48.5977 305.929" stroke="#DEDEDE" stroke-width="2.7858" stroke-miterlimit="10" stroke-linecap="round" stroke-linejoin="round"/>
<path d="M91.8357 267.811L118.787 252.24L112.784 248.782L85.833 264.352L91.8357 267.811Z" stroke="#DEDEDE" stroke-width="2.7858" stroke-miterlimit="10" stroke-linecap="round" stroke-linejoin="round"/>
<path d="M101.647 273.554L128.598 257.984L122.596 254.51L95.6445 270.081L101.647 273.554Z" stroke="#DEDEDE" stroke-width="2.7858" stroke-miterlimit="10" stroke-linecap="round" stroke-linejoin="round"/>
<path d="M111.459 279.283L138.425 263.712L132.422 260.254L105.456 275.824L111.459 279.283Z" stroke="#DEDEDE" stroke-width="2.7858" stroke-miterlimit="10" stroke-linecap="round" stroke-linejoin="round"/>
<path d="M121.27 285.026L148.237 269.456L142.234 265.982L115.268 281.553L121.27 285.026Z" stroke="#DEDEDE" stroke-width="2.7858" stroke-miterlimit="10" stroke-linecap="round" stroke-linejoin="round"/>
<path d="M131.082 290.755L158.048 275.184L152.046 271.726L125.079 287.296L131.082 290.755Z" stroke="#DEDEDE" stroke-width="2.7858" stroke-miterlimit="10" stroke-linecap="round" stroke-linejoin="round"/>
<path d="M140.893 296.498L167.86 280.928L161.857 277.454L134.891 293.025L140.893 296.498Z" stroke="#DEDEDE" stroke-width="2.7858" stroke-miterlimit="10" stroke-linecap="round" stroke-linejoin="round"/>
<path d="M130.046 301.8C130.753 301.8 131.326 301.479 131.326 301.084C131.326 300.688 130.753 300.368 130.046 300.368C129.34 300.368 128.767 300.688 128.767 301.084C128.767 301.479 129.34 301.8 130.046 301.8Z" fill="#EDE1E1"/>
<path d="M116.502 307.925C116.502 308.321 117.081 308.641 117.782 308.641C118.483 308.641 119.061 308.321 119.061 307.925C119.061 307.529 118.483 307.209 117.782 307.209C117.081 307.209 116.502 307.529 116.502 307.925Z" fill="#EDE1E1"/>
<path d="M130.046 300.855C130.046 296.971 127.304 295.401 123.921 297.367C120.539 299.317 117.797 304.055 117.797 307.94" stroke="#433878" stroke-width="2.7858" stroke-miterlimit="10" stroke-linecap="round" stroke-linejoin="round"/>
<path d="M118.269 294.655C118.269 295.051 118.848 295.371 119.548 295.371C120.249 295.371 120.828 295.051 120.828 294.655C120.828 294.259 120.249 293.939 119.548 293.939C118.832 293.939 118.269 294.259 118.269 294.655Z" fill="#EDE1E1"/>
<path d="M107.284 302.227C107.99 302.227 108.563 301.906 108.563 301.511C108.563 301.115 107.99 300.795 107.284 300.795C106.577 300.795 106.004 301.115 106.004 301.511C106.004 301.906 106.577 302.227 107.284 302.227Z" fill="#EDE1E1"/>
<path d="M119.548 294.426C119.548 290.541 116.806 288.972 113.423 290.937C110.041 292.888 107.299 297.626 107.299 301.511" stroke="#433878" stroke-width="2.7858" stroke-miterlimit="10" stroke-linecap="round" stroke-linejoin="round"/>
<path d="M109.037 288.942C109.743 288.942 110.316 288.621 110.316 288.226C110.316 287.83 109.743 287.51 109.037 287.51C108.33 287.51 107.757 287.83 107.757 288.226C107.757 288.621 108.33 288.942 109.037 288.942Z" fill="#EDE1E1"/>
<path d="M96.772 295.797C97.4788 295.797 98.0517 295.477 98.0517 295.081C98.0517 294.686 97.4788 294.365 96.772 294.365C96.0652 294.365 95.4922 294.686 95.4922 295.081C95.4922 295.477 96.0652 295.797 96.772 295.797Z" fill="#EDE1E1"/>
<path d="M109.036 287.997C109.036 284.112 106.294 282.543 102.912 284.508C99.5295 286.458 96.7871 291.196 96.7871 295.081" stroke="#433878" stroke-width="2.7858" stroke-miterlimit="10" stroke-linecap="round" stroke-linejoin="round"/>
<path d="M98.2495 282.604C98.9563 282.604 99.5293 282.283 99.5293 281.888C99.5293 281.492 98.9563 281.172 98.2495 281.172C97.5427 281.172 96.9697 281.492 96.9697 281.888C96.9697 282.283 97.5427 282.604 98.2495 282.604Z" fill="#EDE1E1"/>
<path d="M85.9849 289.444C86.6917 289.444 87.2646 289.124 87.2646 288.728C87.2646 288.333 86.6917 288.012 85.9849 288.012C85.2781 288.012 84.7051 288.333 84.7051 288.728C84.7051 289.124 85.2781 289.444 85.9849 289.444Z" fill="#EDE1E1"/>
<path d="M98.2493 281.644C98.2493 277.759 95.5069 276.19 92.1247 278.155C88.7424 280.121 86 284.843 86 288.728" stroke="#433878" stroke-width="2.7858" stroke-miterlimit="10" stroke-linecap="round" stroke-linejoin="round"/>
<path d="M87.6607 276.449C88.3675 276.449 88.9405 276.128 88.9405 275.733C88.9405 275.337 88.3675 275.017 87.6607 275.017C86.9539 275.017 86.3809 275.337 86.3809 275.733C86.3809 276.128 86.9539 276.449 87.6607 276.449Z" fill="#EDE1E1"/>
<path d="M74.1162 282.589C74.1162 282.985 74.6952 283.305 75.396 283.305C76.0968 283.305 76.6758 282.985 76.6758 282.589C76.6758 282.193 76.0968 281.873 75.396 281.873C74.6952 281.857 74.1162 282.193 74.1162 282.589Z" fill="#EDE1E1"/>
<path d="M87.6603 275.504C87.6603 271.619 84.918 270.05 81.5358 272.015C78.1535 273.966 75.4111 278.704 75.4111 282.589" stroke="#433878" stroke-width="2.7858" stroke-miterlimit="10" stroke-linecap="round" stroke-linejoin="round"/>
<path opacity="0.34" d="M162.801 266.622C162.877 267.034 162.847 267.43 162.74 267.78C162.74 267.795 162.74 267.795 162.74 267.81C162.496 268.603 161.841 269.182 161.003 269.243L160.104 269.319L111.58 273.143C111.306 273.158 111.016 273.128 110.757 273.036L104.983 272.32L101.418 271.711L104.587 270.766L109.965 268.511C110.193 268.389 110.452 268.298 110.742 268.283L156.753 264.657L160.15 264.383C160.379 264.367 160.607 264.383 160.82 264.444C160.973 264.474 161.11 264.535 161.247 264.596C161.384 264.657 161.521 264.733 161.643 264.824C161.765 264.916 161.887 265.022 162.009 265.129C162.07 265.19 162.115 265.251 162.176 265.312C162.496 265.662 162.725 266.119 162.801 266.622Z" fill="#727272"/>
<path d="M106.705 269.578C106.857 270.903 108.015 271.909 109.28 271.817L160.638 268.13C161.902 268.039 162.832 266.881 162.679 265.556C162.527 264.23 161.369 263.225 160.105 263.316L108.747 267.003C107.467 267.094 106.553 268.252 106.705 269.578Z" fill="#00AF46"/>
<path d="M106.705 269.578L162.679 265.556C162.527 264.23 161.369 263.225 160.105 263.316L108.747 267.003C107.467 267.094 106.553 268.252 106.705 269.578Z" fill="#00D254"/>
<path d="M109.279 271.817L102.515 270.995L102.21 269.441L107.923 267.232L109.645 267.734L108.822 268.984L109.995 269.959L109.111 270.751L110.345 271.284L109.279 271.817Z" fill="#D4B3B3"/>
<path d="M102.378 270.294L102.21 269.441L107.923 267.232L109.645 267.734L108.822 268.984L109.995 269.959L102.378 270.294Z" fill="#F7D1D2"/>
<path d="M98.8584 270.37L102.515 270.995L102.21 269.441L98.8584 270.37Z" fill="#56446B"/>
<path d="M162.664 265.556C162.816 266.881 161.887 268.039 160.622 268.131L157.072 268.39C157.347 267.186 157.407 265.495 156.539 263.575L160.074 263.316C161.369 263.225 162.526 264.23 162.664 265.556Z" fill="#7C64BA"/>
<path d="M155.96 268.466C155.96 268.466 156.814 265.83 155.138 263.667" stroke="#FFFAFA" stroke-width="1.8831" stroke-miterlimit="10" stroke-linecap="round" stroke-linejoin="round"/>
<path d="M197.538 315.512L214.084 305.959C214.846 305.517 214.754 304.741 213.871 304.223L208.432 301.084C207.548 300.566 206.207 300.52 205.43 300.962L188.885 310.515C188.123 310.956 188.214 311.733 189.098 312.251L194.537 315.39C195.421 315.908 196.761 315.969 197.538 315.512Z" fill="white"/>
<path d="M195.5 313.657C197.562 313.646 199.227 312.669 199.221 311.474C199.215 310.279 197.538 309.32 195.477 309.331C193.415 309.342 191.749 310.32 191.756 311.514C191.762 312.709 193.439 313.669 195.5 313.657Z" fill="#D7D7D7"/>
<path d="M208.539 302.867L198.56 308.656" stroke="#D7D7D7" stroke-width="1.9227" stroke-miterlimit="10" stroke-linecap="round" stroke-linejoin="round"/>
<path d="M210.381 304.451L205.201 307.452" stroke="#D7D7D7" stroke-width="1.9227" stroke-miterlimit="10" stroke-linecap="round" stroke-linejoin="round"/>
<path d="M210.366 323.206L226.911 313.653C227.673 313.211 227.582 312.434 226.698 311.916L221.259 308.778C220.375 308.26 219.035 308.214 218.258 308.656L201.712 318.208C200.95 318.65 201.042 319.427 201.925 319.945L207.364 323.084C208.248 323.586 209.604 323.647 210.366 323.206Z" fill="#00C213"/>
<path d="M208.328 321.336C210.39 321.325 212.056 320.347 212.049 319.153C212.043 317.958 210.366 316.998 208.305 317.01C206.243 317.021 204.578 317.998 204.584 319.193C204.59 320.388 206.267 321.347 208.328 321.336Z" fill="white"/>
<path d="M221.38 310.56L211.401 316.35" stroke="white" stroke-width="1.9227" stroke-miterlimit="10" stroke-linecap="round" stroke-linejoin="round"/>
<path d="M223.225 312.13L218.029 315.146" stroke="white" stroke-width="1.9227" stroke-miterlimit="10" stroke-linecap="round" stroke-linejoin="round"/>
<path d="M223.209 330.899L239.755 321.347C240.517 320.905 240.425 320.128 239.542 319.61L234.103 316.471C233.219 315.953 231.878 315.908 231.101 316.35L214.556 325.902C213.794 326.344 213.885 327.121 214.769 327.639L220.208 330.777C221.092 331.28 222.432 331.341 223.209 330.899Z" fill="white"/>
<path d="M221.172 329.03C223.234 329.019 224.9 328.041 224.893 326.846C224.887 325.651 223.21 324.692 221.149 324.703C219.087 324.714 217.421 325.692 217.428 326.887C217.434 328.082 219.111 329.041 221.172 329.03Z" fill="#D7D7D7"/>
<path d="M234.21 318.239L224.23 324.028" stroke="#D7D7D7" stroke-width="1.9227" stroke-miterlimit="10" stroke-linecap="round" stroke-linejoin="round"/>
<path d="M236.053 319.823L230.873 322.824" stroke="#D7D7D7" stroke-width="1.9227" stroke-miterlimit="10" stroke-linecap="round" stroke-linejoin="round"/>
<path d="M388.33 139.607C388.802 141.725 387.461 143.842 386.364 144.086C385.283 144.33 385.984 142.365 385.511 140.247C385.039 138.129 383.561 136.651 384.658 136.408C385.725 136.149 387.857 137.474 388.33 139.607Z" fill="#F2C8C8"/>
<path d="M380.834 139.973C380.834 139.973 380.696 134.564 383.012 132.279" stroke="#F2C8C8" stroke-width="3.9584" stroke-miterlimit="10" stroke-linecap="round" stroke-linejoin="round"/>
<path opacity="0.34" d="M224.581 158.529L202.871 171.327C196.838 174.876 191.033 171.921 189.951 164.745L188.58 155.665C187.498 148.489 191.551 139.714 197.584 136.164L219.294 123.367C225.328 119.817 231.132 122.772 232.214 129.948L233.585 139.028C234.667 146.204 230.614 154.979 224.581 158.529Z" fill="#DFDFDF"/>
<path d="M222.326 155.36L200.616 168.158C194.583 171.707 188.778 168.752 187.696 161.576L186.325 152.496C185.243 145.32 189.296 136.545 195.329 132.995L217.04 120.198C223.073 116.648 228.877 119.603 229.959 126.779L231.33 135.859C232.412 143.035 228.359 151.81 222.326 155.36Z" fill="#00D254"/>
<path d="M206.025 153.852L204.12 141.176C203.968 140.155 204.775 138.952 205.613 138.952L217.223 139.013C218.152 139.013 218.365 140.46 217.588 141.481L207.883 154.096C207.183 155.01 206.177 154.873 206.025 153.852Z" fill="white"/>
<path opacity="0.34" d="M187.239 156.061L179.027 160.906C174.137 163.785 170.861 170.885 171.729 176.705C172.598 182.509 177.306 184.916 182.196 182.037L190.408 177.192C190.606 177.07 190.819 176.933 191.017 176.811L190.941 176.887L196.106 177.314L194.735 173.018C197.035 169.636 198.269 165.248 197.706 161.409C196.837 155.574 192.129 153.182 187.239 156.061Z" fill="#DFDFDF"/>
<path opacity="0.34" d="M236.526 112.26L226.882 117.943C223.027 120.213 220.422 125.834 221.108 130.435L221.275 131.593C221.961 136.179 225.693 138.083 229.548 135.813L239.192 130.131C243.047 127.861 245.652 122.239 244.966 117.638L244.799 116.48C244.113 111.879 240.396 109.975 236.526 112.26Z" fill="#E3CFCF"/>
<path d="M187.711 177.619L179.5 182.463C174.609 185.343 169.902 182.951 169.033 177.131C168.165 171.327 171.44 164.212 176.331 161.332L184.543 156.488C189.433 153.608 194.141 156 195.009 161.82C195.878 167.624 192.602 174.739 187.711 177.619Z" fill="#C4C4C4"/>
<path d="M188.245 177.299L193.41 177.725L192.039 173.414L188.245 177.299Z" fill="#C4C4C4"/>
<path d="M178.318 172.473C178.761 171.427 178.548 170.337 177.843 170.038C177.138 169.74 176.207 170.346 175.764 171.391C175.321 172.437 175.533 173.527 176.239 173.826C176.944 174.125 177.874 173.519 178.318 172.473Z" fill="white"/>
<path d="M183.24 169.574C183.683 168.528 183.471 167.438 182.766 167.14C182.061 166.841 181.13 167.447 180.687 168.493C180.244 169.539 180.456 170.629 181.161 170.927C181.866 171.226 182.797 170.62 183.24 169.574Z" fill="white"/>
<path d="M188.169 166.662C188.612 165.616 188.4 164.526 187.695 164.227C186.99 163.929 186.059 164.534 185.616 165.58C185.173 166.626 185.385 167.716 186.09 168.015C186.795 168.314 187.726 167.708 188.169 166.662Z" fill="white"/>
<path d="M240.807 125.377L231.163 131.06C227.308 133.33 223.575 131.441 222.89 126.84L222.722 125.682C222.037 121.096 224.627 115.475 228.496 113.189L238.14 107.507C241.995 105.237 245.727 107.126 246.413 111.727L246.581 112.885C247.266 117.486 244.676 123.107 240.807 125.377Z" fill="#2B2B2B"/>
<path d="M226.013 118.994L241.278 109.99" stroke="#FFFAFA" stroke-width="2.4286" stroke-miterlimit="10" stroke-linecap="round" stroke-linejoin="round"/>
<path d="M226.652 123.336L241.933 114.332" stroke="#FFFAFA" stroke-width="2.4286" stroke-miterlimit="10" stroke-linecap="round" stroke-linejoin="round"/>
<path d="M227.308 127.693L237.835 121.492" stroke="#FFFAFA" stroke-width="2.4286" stroke-miterlimit="10" stroke-linecap="round" stroke-linejoin="round"/>
</svg>
