<svg width="66" height="19" viewBox="0 0 66 19" fill="none" xmlns="http://www.w3.org/2000/svg">
<path d="M-0.0078125 18V0.867188H3.625V15H10.5742V18H-0.0078125ZM29.1133 9.41016C29.1133 10.7305 28.9492 11.9336 28.6211 13.0195C28.293 14.0977 27.793 15.0273 27.1211 15.8086C26.457 16.5898 25.6133 17.1914 24.5898 17.6133C23.5664 18.0273 22.3555 18.2344 20.957 18.2344C19.5586 18.2344 18.3477 18.0273 17.3242 17.6133C16.3008 17.1914 15.4531 16.5898 14.7812 15.8086C14.1172 15.0273 13.6211 14.0938 13.293 13.0078C12.9648 11.9219 12.8008 10.7148 12.8008 9.38672C12.8008 7.61328 13.0898 6.07031 13.668 4.75781C14.2539 3.4375 15.1523 2.41406 16.3633 1.6875C17.5742 0.960938 19.1133 0.597656 20.9805 0.597656C22.8398 0.597656 24.3672 0.960938 25.5625 1.6875C26.7656 2.41406 27.6562 3.4375 28.2344 4.75781C28.8203 6.07812 29.1133 7.62891 29.1133 9.41016ZM16.6094 9.41016C16.6094 10.6055 16.7578 11.6367 17.0547 12.5039C17.3594 13.3633 17.832 14.0273 18.4727 14.4961C19.1133 14.957 19.9414 15.1875 20.957 15.1875C21.9883 15.1875 22.8242 14.957 23.4648 14.4961C24.1055 14.0273 24.5703 13.3633 24.8594 12.5039C25.1562 11.6367 25.3047 10.6055 25.3047 9.41016C25.3047 7.61328 24.9688 6.19922 24.2969 5.16797C23.625 4.13672 22.5195 3.62109 20.9805 3.62109C19.957 3.62109 19.1211 3.85547 18.4727 4.32422C17.832 4.78516 17.3594 5.44922 17.0547 6.31641C16.7578 7.17578 16.6094 8.20703 16.6094 9.41016ZM39.168 8.37891H45.9648V17.2617C45.0664 17.5586 44.1328 17.7969 43.1641 17.9766C42.1953 18.1484 41.0977 18.2344 39.8711 18.2344C38.168 18.2344 36.7227 17.8984 35.5352 17.2266C34.3477 16.5547 33.4453 15.5625 32.8281 14.25C32.2109 12.9375 31.9023 11.3242 31.9023 9.41016C31.9023 7.61328 32.2461 6.05859 32.9336 4.74609C33.6289 3.43359 34.6406 2.41797 35.9688 1.69922C37.3047 0.980469 38.9336 0.621094 40.8555 0.621094C41.7617 0.621094 42.6562 0.71875 43.5391 0.914062C44.4219 1.10938 45.2227 1.36328 45.9414 1.67578L44.7344 4.58203C44.2109 4.31641 43.6133 4.09375 42.9414 3.91406C42.2695 3.73438 41.5664 3.64453 40.832 3.64453C39.7773 3.64453 38.8594 3.88672 38.0781 4.37109C37.3047 4.85547 36.7031 5.53516 36.2734 6.41016C35.8516 7.27734 35.6406 8.30078 35.6406 9.48047C35.6406 10.5977 35.793 11.5898 36.0977 12.457C36.4023 13.3164 36.8828 13.9922 37.5391 14.4844C38.1953 14.9688 39.0508 15.2109 40.1055 15.2109C40.6211 15.2109 41.0547 15.1875 41.4062 15.1406C41.7656 15.0859 42.1016 15.0312 42.4141 14.9766V11.4023H39.168V8.37891ZM65.6055 9.41016C65.6055 10.7305 65.4414 11.9336 65.1133 13.0195C64.7852 14.0977 64.2852 15.0273 63.6133 15.8086C62.9492 16.5898 62.1055 17.1914 61.082 17.6133C60.0586 18.0273 58.8477 18.2344 57.4492 18.2344C56.0508 18.2344 54.8398 18.0273 53.8164 17.6133C52.793 17.1914 51.9453 16.5898 51.2734 15.8086C50.6094 15.0273 50.1133 14.0938 49.7852 13.0078C49.457 11.9219 49.293 10.7148 49.293 9.38672C49.293 7.61328 49.582 6.07031 50.1602 4.75781C50.7461 3.4375 51.6445 2.41406 52.8555 1.6875C54.0664 0.960938 55.6055 0.597656 57.4727 0.597656C59.332 0.597656 60.8594 0.960938 62.0547 1.6875C63.2578 2.41406 64.1484 3.4375 64.7266 4.75781C65.3125 6.07812 65.6055 7.62891 65.6055 9.41016ZM53.1016 9.41016C53.1016 10.6055 53.25 11.6367 53.5469 12.5039C53.8516 13.3633 54.3242 14.0273 54.9648 14.4961C55.6055 14.957 56.4336 15.1875 57.4492 15.1875C58.4805 15.1875 59.3164 14.957 59.957 14.4961C60.5977 14.0273 61.0625 13.3633 61.3516 12.5039C61.6484 11.6367 61.7969 10.6055 61.7969 9.41016C61.7969 7.61328 61.4609 6.19922 60.7891 5.16797C60.1172 4.13672 59.0117 3.62109 57.4727 3.62109C56.4492 3.62109 55.6133 3.85547 54.9648 4.32422C54.3242 4.78516 53.8516 5.44922 53.5469 6.31641C53.25 7.17578 53.1016 8.20703 53.1016 9.41016Z" fill="white"/>
</svg>
