<svg width="23" height="26" viewBox="0 0 23 26" fill="none" xmlns="http://www.w3.org/2000/svg">
<path d="M6.22309 4.14819H4.44531V14.2223C4.44531 18.4889 8.19841 19.9507 10.0749 20.1482H11.8527V18.3704C7.11198 18.3704 6.12433 15.605 6.22309 14.2223V4.14819Z" fill="#2B2B2B"/>
<path d="M10.3704 0H0V1.77778H10.3704V0Z" fill="#2B2B2B"/>
<path d="M10.3706 19.5556V1.77783H8.59277V19.5556H10.3706Z" fill="#2B2B2B"/>
<path d="M1.92593 10.3704V0H0V10.3704H1.92593Z" fill="#2B2B2B"/>
<path d="M1.91453 13.9258V8.64164H2.96699e-06C2.96699e-06 7.8046 0 7.19222 0 14.5186C0 16.7116 1.18519 25.1851 12.4444 25.1851V23.4126C5.29686 23.4126 1.91453 18.5184 1.91453 13.9258Z" fill="#2B2B2B"/>
<path d="M16.7771 4.14819H18.5549V14.2223C18.5549 18.4889 14.8018 19.9507 12.9252 20.1482H11.1475V18.3704C15.8882 18.3704 16.8758 15.605 16.7771 14.2223V4.14819Z" fill="#2B2B2B"/>
<path d="M12.6299 0H23.0003V1.77778H12.6299V0Z" fill="#2B2B2B"/>
<path d="M12.6299 19.5556V1.77783H14.4077V19.5556H12.6299Z" fill="#2B2B2B"/>
<path d="M21.0732 10.3704V0H22.9992V10.3704H21.0732Z" fill="#2B2B2B"/>
<path d="M21.0856 13.9258V8.64164H23.0001C23.0001 7.8046 23.0001 7.19222 23.0001 14.5186C23.0001 16.7116 21.8149 25.1851 10.5557 25.1851V23.4126C17.7032 23.4126 21.0856 18.5184 21.0856 13.9258Z" fill="#2B2B2B"/>
</svg>
