<svg width="58" height="24" viewBox="0 0 58 24" fill="none" xmlns="http://www.w3.org/2000/svg">
<path d="M5.528 12.968H10.664V17H0.2V0.0079999H5.528V12.968ZM18.7726 17.168C17.4126 17.168 16.1886 16.888 15.1006 16.328C14.0126 15.768 13.1566 14.968 12.5326 13.928C11.9246 12.872 11.6206 11.64 11.6206 10.232C11.6206 8.824 11.9246 7.6 12.5326 6.56C13.1566 5.504 14.0126 4.696 15.1006 4.136C16.1886 3.576 17.4126 3.296 18.7726 3.296C20.1326 3.296 21.3566 3.576 22.4446 4.136C23.5326 4.696 24.3806 5.504 24.9886 6.56C25.6126 7.6 25.9246 8.824 25.9246 10.232C25.9246 11.64 25.6126 12.872 24.9886 13.928C24.3806 14.968 23.5326 15.768 22.4446 16.328C21.3566 16.888 20.1326 17.168 18.7726 17.168ZM18.7726 12.56C19.2686 12.56 19.6846 12.368 20.0206 11.984C20.3566 11.584 20.5246 11 20.5246 10.232C20.5246 9.464 20.3566 8.888 20.0206 8.504C19.6846 8.104 19.2686 7.904 18.7726 7.904C18.2766 7.904 17.8606 8.104 17.5246 8.504C17.1886 8.888 17.0206 9.464 17.0206 10.232C17.0206 11 17.1806 11.584 17.5006 11.984C17.8366 12.368 18.2606 12.56 18.7726 12.56ZM32.4704 3.296C33.3504 3.296 34.1104 3.48 34.7504 3.848C35.3904 4.2 35.8784 4.688 36.2144 5.312V3.464H41.5184V16.76C41.5184 18.024 41.2864 19.176 40.8224 20.216C40.3584 21.256 39.6064 22.088 38.5664 22.712C37.5424 23.336 36.2224 23.648 34.6064 23.648C32.4304 23.648 30.7024 23.136 29.4224 22.112C28.1584 21.104 27.4384 19.728 27.2624 17.984H32.4944C32.6384 18.688 33.2144 19.04 34.2224 19.04C34.8464 19.04 35.3344 18.88 35.6864 18.56C36.0384 18.24 36.2144 17.64 36.2144 16.76V15.152C35.8784 15.776 35.3904 16.272 34.7504 16.64C34.1104 16.992 33.3504 17.168 32.4704 17.168C31.4144 17.168 30.4624 16.896 29.6144 16.352C28.7664 15.792 28.0944 14.992 27.5984 13.952C27.1184 12.896 26.8784 11.656 26.8784 10.232C26.8784 8.808 27.1184 7.576 27.5984 6.536C28.0944 5.48 28.7664 4.68 29.6144 4.136C30.4624 3.576 31.4144 3.296 32.4704 3.296ZM36.2144 10.232C36.2144 9.512 36.0304 8.952 35.6624 8.552C35.2944 8.152 34.8224 7.952 34.2464 7.952C33.6704 7.952 33.1984 8.152 32.8304 8.552C32.4624 8.952 32.2784 9.512 32.2784 10.232C32.2784 10.952 32.4624 11.512 32.8304 11.912C33.1984 12.312 33.6704 12.512 34.2464 12.512C34.8224 12.512 35.2944 12.312 35.6624 11.912C36.0304 11.512 36.2144 10.952 36.2144 10.232ZM50.3429 17.168C48.9829 17.168 47.7589 16.888 46.6709 16.328C45.5829 15.768 44.7269 14.968 44.1029 13.928C43.4949 12.872 43.1909 11.64 43.1909 10.232C43.1909 8.824 43.4949 7.6 44.1029 6.56C44.7269 5.504 45.5829 4.696 46.6709 4.136C47.7589 3.576 48.9829 3.296 50.3429 3.296C51.7029 3.296 52.9269 3.576 54.0149 4.136C55.1029 4.696 55.9509 5.504 56.5589 6.56C57.1829 7.6 57.4949 8.824 57.4949 10.232C57.4949 11.64 57.1829 12.872 56.5589 13.928C55.9509 14.968 55.1029 15.768 54.0149 16.328C52.9269 16.888 51.7029 17.168 50.3429 17.168ZM50.3429 12.56C50.8389 12.56 51.2549 12.368 51.5909 11.984C51.9269 11.584 52.0949 11 52.0949 10.232C52.0949 9.464 51.9269 8.888 51.5909 8.504C51.2549 8.104 50.8389 7.904 50.3429 7.904C49.8469 7.904 49.4309 8.104 49.0949 8.504C48.7589 8.888 48.5909 9.464 48.5909 10.232C48.5909 11 48.7509 11.584 49.0709 11.984C49.4069 12.368 49.8309 12.56 50.3429 12.56Z" fill="#2B2B2B"/>
</svg>
