<!-- Generated by IcoMoon.io -->
<svg version="1.1" xmlns="http://www.w3.org/2000/svg" width="512" height="512" viewBox="0 0 512 512">
<title></title>
<g id="icomoon-ignore">
</g>
<path fill="#000" d="M146.657 223.132c0.434 73.979 0.434 74.739 2.821 82.657 11.607 37.966 39.918 65.41 77.343 74.956 34.386 8.786 68.99 2.929 96.977-16.271 8.678-6.075 20.719-18.115 26.468-26.468 5.532-7.918 12.8-24.19 15.512-34.278 2.278-9.003 2.387-10.956 2.712-82.224l0.434-72.895h-98.82v171.498l-26.577-0.651 0.434-19.2c0.108-10.522 0-48.922-0.434-85.37l-0.868-66.278h-96.326l0.326 74.522zM226.712 241.356v76.583l-2.387-1.301c-4.231-2.278-12.583-11.39-15.295-16.813-6.075-12.041-6.183-13.125-6.183-65.193v-48.054h-15.186v49.573c0 54.671 0.326 57.383 6.617 70.075 4.231 8.353 16.705 21.044 24.516 25.058 11.499 5.749 29.071 7.377 56.515 5.099 9.546-0.868 12.366-1.519 18.224-4.556 12.909-6.509 24.515-19.091 29.613-32 4.014-10.413 4.556-20.068 3.796-68.013l-0.76-45.234h-13.668l-0.325 49.031c-0.434 47.62-0.543 49.356-2.82 55.647-3.146 8.57-9.221 17.248-15.187 21.803-2.712 2.061-5.315 3.688-5.749 3.688-0.543 0-0.976-34.17-0.976-75.932v-75.932l31.783 0.217 31.675 0.326v62.916c0 61.722 0 63.132-2.387 72.027-4.122 15.404-10.522 27.010-21.261 38.834-9.654 10.522-21.587 17.899-39.268 24.19-8.678 3.038-11.39 3.471-24.949 4.014-24.624 0.868-41.762-3.579-59.769-15.512-18.332-12.149-31.24-30.373-37.532-53.37-2.278-7.918-2.387-11.173-2.821-69.423-0.217-33.627-0.108-61.831 0.217-62.698 0.434-1.302 5.749-1.518 32.108-1.518h31.458v76.475z"></path>
</svg>
