<svg aria-hidden="true" style="position: absolute; width: 0; height: 0; overflow: hidden;" version="1.1" xmlns="http://www.w3.org/2000/svg" xmlns:xlink="http://www.w3.org/1999/xlink">
<defs>
<symbol id="icon-burger" viewBox="0 0 32 32">
<path d="M32 3.814h-32v3.179h32v-3.179z"></path>
<path d="M32 25.007h-32v3.179h32v-3.179z"></path>
<path d="M32 14.411h-32v3.179h32v-3.179z"></path>
</symbol>
<symbol id="icon-search" viewBox="0 0 32 32">
<path d="M14.092 0c-7.77 0-14.092 6.322-14.092 14.092s6.322 14.092 14.092 14.092c7.771 0 14.092-6.322 14.092-14.092s-6.322-14.092-14.092-14.092zM14.092 25.583c-6.336 0-11.491-5.155-11.491-11.491s5.155-11.491 11.491-11.491c6.336 0 11.49 5.155 11.49 11.491s-5.155 11.491-11.49 11.491z"></path>
<path d="M31.618 29.779l-7.458-7.458c-0.508-0.508-1.331-0.508-1.839 0s-0.508 1.332 0 1.839l7.458 7.458c0.254 0.254 0.587 0.381 0.92 0.381s0.666-0.127 0.92-0.381c0.508-0.508 0.508-1.332 0-1.839z"></path>
</symbol>
<symbol id="icon-comparison" viewBox="0 0 26 32">
<path d="M25.332 11.976l-6.4-7.677c-0.357-0.428-0.936-0.428-1.293 0-0.171 0.206-0.268 0.484-0.268 0.775v3.29h-6.4c-0.505 0-0.914 0.491-0.914 1.097s0.409 1.097 0.914 1.097h7.314c0.505 0 0.914-0.491 0.914-1.097v-1.74l4.193 5.030-4.193 5.030v-1.739c0-0.606-0.409-1.097-0.914-1.097h-10.057v-3.29c-0-0.606-0.41-1.097-0.914-1.097-0.242 0-0.475 0.115-0.646 0.321l-6.4 7.677c-0.357 0.428-0.357 1.123 0 1.551l6.4 7.677c0.171 0.206 0.404 0.321 0.646 0.321 0.12 0 0.239-0.028 0.35-0.083 0.342-0.17 0.564-0.57 0.564-1.014v-3.29h6.4c0.505 0 0.914-0.491 0.914-1.097s-0.409-1.097-0.914-1.097h-7.314c-0.505 0-0.914 0.491-0.914 1.097v1.739l-4.193-5.030 4.193-5.030v1.739c0 0.606 0.409 1.097 0.914 1.097h10.057v3.29c0 0.606 0.41 1.097 0.914 1.096 0.242-0 0.475-0.116 0.646-0.321l6.4-7.677c0.357-0.428 0.357-1.122 0-1.551z"></path>
</symbol>
<symbol id="icon-advantages-video" viewBox="0 0 40 32">
<path fill="#01e45c" style="fill: var(--color1, #01e45c)" d="M3.516 31.686h32.969c1.938 0 3.516-1.508 3.516-3.361v-24.649c0-1.853-1.577-3.361-3.516-3.361h-32.969c-1.938 0-3.516 1.508-3.516 3.361v24.649c0 1.853 1.577 3.361 3.516 3.361zM2.344 3.675c0-0.618 0.526-1.12 1.172-1.12h32.969c0.646 0 1.172 0.503 1.172 1.12v24.649c0 0.618-0.526 1.12-1.172 1.12h-32.969c-0.646 0-1.172-0.503-1.172-1.12v-24.649z"></path>
<path fill="#2b2b2b" style="fill: var(--color2, #2b2b2b)" d="M5.859 24.963h1.452c0.484 1.304 1.786 2.241 3.314 2.241s2.83-0.937 3.314-2.241h20.202c0.647 0 1.172-0.502 1.172-1.12s-0.525-1.12-1.172-1.12h-20.201c-0.484-1.304-1.786-2.241-3.314-2.241s-2.83 0.937-3.314 2.241h-1.452c-0.647 0-1.172 0.502-1.172 1.12s0.525 1.12 1.172 1.12zM10.625 22.723c0.646 0 1.172 0.503 1.172 1.12s-0.526 1.12-1.172 1.12c-0.646 0-1.172-0.503-1.172-1.12s0.526-1.12 1.172-1.12z"></path>
<path fill="#2b2b2b" style="fill: var(--color2, #2b2b2b)" d="M14.696 18.073c0.346 0.204 0.778 0.222 1.14 0.049l9.375-4.482c0.397-0.19 0.648-0.578 0.648-1.002s-0.251-0.812-0.648-1.002l-9.375-4.482c-0.363-0.174-0.795-0.155-1.14 0.049s-0.556 0.565-0.556 0.953v8.963c0 0.388 0.21 0.749 0.556 0.953zM16.484 9.97l5.583 2.669-5.583 2.669v-5.338z"></path>
</symbol>
<symbol id="icon-advantages-search" viewBox="0 0 42 32">
<path fill="#01e45c" style="fill: var(--color1, #01e45c)" d="M40.873 24.765l-9.393-9.341c1.762-3.978 1.008-8.801-2.264-12.055-4.263-4.239-11.163-4.24-15.427 0-4.253 4.229-4.253 11.111 0 15.34 3.38 3.361 8.333 4.001 12.287 2.183l9.345 9.293c1.507 1.498 3.946 1.498 5.452-0 1.503-1.494 1.502-3.926-0-5.421zM15.53 16.98c-3.294-3.275-3.294-8.605 0-11.88 3.301-3.283 8.645-3.283 11.946 0 3.294 3.275 3.294 8.605 0 11.88-3.301 3.283-8.645 3.283-11.946 0zM39.133 28.456c-0.545 0.542-1.426 0.542-1.971 0l-8.928-8.878c0.734-0.574 1.388-1.234 1.956-1.976l8.943 8.894c0.544 0.541 0.544 1.42 0 1.961z"></path>
<path fill="#2b2b2b" style="fill: var(--color2, #2b2b2b)" d="M1.231 14.85h5.247c0.68 0 1.231-0.548 1.231-1.223s-0.551-1.223-1.231-1.223h-5.247c-0.68 0-1.231 0.548-1.231 1.223s0.551 1.223 1.231 1.223z"></path>
<path fill="#2b2b2b" style="fill: var(--color2, #2b2b2b)" d="M1.231 20.069h7.215c0.68 0 1.231-0.548 1.231-1.223s-0.551-1.223-1.231-1.223h-7.215c-0.68 0-1.231 0.548-1.231 1.223s0.551 1.223 1.231 1.223z"></path>
<path fill="#2b2b2b" style="fill: var(--color2, #2b2b2b)" d="M1.231 25.289h12.462c0.68 0 1.231-0.548 1.231-1.223s-0.551-1.223-1.231-1.223h-12.462c-0.68 0-1.231 0.548-1.231 1.223s0.551 1.223 1.231 1.223z"></path>
<path fill="#2b2b2b" style="fill: var(--color2, #2b2b2b)" d="M28.122 28.062h-26.892c-0.68 0-1.231 0.548-1.231 1.223s0.551 1.223 1.231 1.223h26.892c0.68 0 1.23-0.548 1.23-1.223s-0.551-1.223-1.23-1.223z"></path>
</symbol>
<symbol id="icon-advantages-mic" viewBox="0 0 34 32">
<path fill="#2b2b2b" style="fill: var(--color2, #2b2b2b)" d="M2.82 1.206v1.494c-1.417 0.498-2.434 1.838-2.434 3.41s1.018 2.913 2.434 3.41v20.79c0 0.666 0.545 1.206 1.217 1.206s1.217-0.54 1.217-1.206v-20.79c1.417-0.498 2.434-1.838 2.434-3.41s-1.018-2.913-2.434-3.41v-1.494c0-0.666-0.545-1.206-1.217-1.206s-1.217 0.54-1.217 1.206zM5.254 6.11c0 0.665-0.546 1.206-1.217 1.206s-1.217-0.541-1.217-1.206c0-0.665 0.546-1.206 1.217-1.206s1.217 0.541 1.217 1.206z"></path>
<path fill="#01e45c" style="fill: var(--color1, #01e45c)" d="M15.856 30.31v-1.494c-1.416-0.498-2.434-1.838-2.434-3.411s1.018-2.913 2.434-3.41v-20.789c0-0.666 0.545-1.206 1.217-1.206s1.217 0.54 1.217 1.206v20.789c1.417 0.498 2.434 1.838 2.434 3.41s-1.018 2.913-2.434 3.411v1.494c0 0.666-0.545 1.206-1.217 1.206s-1.217-0.54-1.217-1.206zM18.29 25.406c0-0.665-0.546-1.206-1.217-1.206s-1.217 0.541-1.217 1.206c0 0.665 0.546 1.206 1.217 1.206s1.217-0.541 1.217-1.206z"></path>
<path fill="#2b2b2b" style="fill: var(--color2, #2b2b2b)" d="M28.89 1.206v1.494c-1.416 0.498-2.434 1.838-2.434 3.41s1.018 2.913 2.434 3.41v20.79c0 0.666 0.545 1.206 1.217 1.206s1.217-0.54 1.217-1.206v-20.79c1.416-0.498 2.434-1.838 2.434-3.41s-1.018-2.913-2.434-3.41v-1.494c0-0.666-0.545-1.206-1.217-1.206s-1.217 0.54-1.217 1.206zM31.324 6.11c0 0.665-0.546 1.206-1.217 1.206s-1.217-0.541-1.217-1.206 0.546-1.206 1.217-1.206c0.671 0 1.217 0.541 1.217 1.206z"></path>
</symbol>
<symbol id="icon-telegram" viewBox="0 0 32 32">
<path  d="M12.556 20.241l-0.529 7.445c0.757 0 1.085-0.325 1.479-0.716l3.551-3.393 7.357 5.388c1.349 0.752 2.3 0.356 2.664-1.241l4.829-22.629 0.001-0.001c0.428-1.995-0.721-2.775-2.036-2.285l-28.387 10.868c-1.937 0.752-1.908 1.832-0.329 2.321l7.257 2.257 16.857-10.548c0.793-0.525 1.515-0.235 0.921 0.291l-13.636 12.244z"></path>
</symbol>
<symbol id="icon-instagram" viewBox="0 0 32 32">
<path d="M22 0h-12c-5.522 0-10 4.478-10 10v12c0 5.522 4.478 10 10 10h12c5.522 0 10-4.478 10-10v-12c0-5.522-4.478-10-10-10zM29 22c0 3.86-3.14 7-7 7h-12c-3.86 0-7-3.14-7-7v-12c0-3.86 3.14-7 7-7h12c3.86 0 7 3.14 7 7v12z"></path>
<path  d="M16 8c-4.418 0-8 3.582-8 8s3.582 8 8 8c4.418 0 8-3.582 8-8s-3.582-8-8-8zM16 21c-2.756 0-5-2.244-5-5 0-2.758 2.244-5 5-5s5 2.242 5 5c0 2.756-2.244 5-5 5z"></path>
<path  d="M24.599 8.466c0.589 0 1.066-0.477 1.066-1.066s-0.477-1.066-1.066-1.066c-0.589 0-1.066 0.477-1.066 1.066s0.477 1.066 1.066 1.066z"></path>
</symbol>
<symbol id="icon-youtube" viewBox="0 0 32 32">
<path  d="M30.366 8.502c-0.346-1.285-1.359-2.298-2.644-2.644-2.348-0.642-11.738-0.642-11.738-0.642s-9.39 0-11.738 0.618c-1.26 0.346-2.298 1.384-2.644 2.669-0.618 2.347-0.618 7.216-0.618 7.216s0 4.893 0.618 7.216c0.346 1.285 1.359 2.298 2.644 2.644 2.372 0.642 11.738 0.642 11.738 0.642s9.39 0 11.738-0.618c1.285-0.346 2.298-1.359 2.644-2.644 0.618-2.348 0.618-7.216 0.618-7.216s0.025-4.893-0.618-7.24zM12.994 20.215v-8.995l7.809 4.497-7.809 4.497z"></path>
</symbol>
<symbol id="icon-facebook" viewBox="0 0 32 32">
<path  d="M11.438 6.175c0-0.2 0.028-0.63 0.083-1.29 0.060-0.661 0.309-1.352 0.756-2.078 0.443-0.723 1.162-1.373 2.162-1.948 0.996-0.572 2.435-0.86 4.314-0.86h5.291v5.767h-3.874c-0.384 0-0.741 0.144-1.064 0.428-0.32 0.284-0.485 0.554-0.485 0.805v3.588h5.422c-0.057 0.702-0.119 1.385-0.191 2.045l-0.215 1.743c-0.086 0.589-0.173 1.134-0.259 1.637h-4.796v15.988h-7.145v-15.99h-3.485v-5.423h3.485v-4.412z"></path>
</symbol>
<symbol id="icon-footer-plus" viewBox="0 0 32 32">
<path fill="#fff" style="fill: var(--color1, #fff)" d="M30.248 13.503h-11.748v-11.728c0-0.965-0.782-1.772-1.747-1.772h-1.504c-0.965 0-1.75 0.807-1.75 1.772v11.728h-11.75c-0.965 0-1.75 0.78-1.75 1.746v1.512c0 0.965 0.785 1.742 1.75 1.742h11.75v11.77c0 0.965 0.785 1.73 1.75 1.73h1.504c0.965 0 1.747-0.765 1.747-1.73v-11.77h11.748c0.965 0 1.752-0.777 1.752-1.742v-1.512c0-0.965-0.787-1.746-1.752-1.746z"></path>
</symbol>
<symbol id="icon-footer-minus" viewBox="0 0 32 32">
<path fill="#fff" style="fill: var(--color1, #fff)" d="M29.818 13.114h-27.636c-1.204 0-2.182 0.977-2.182 2.182v1.454c0 1.204 0.977 2.182 2.182 2.182h27.636c1.204 0 2.182-0.977 2.182-2.182v-1.454c0-1.204-0.977-2.182-2.182-2.182z"></path>
</symbol>
<symbol id="icon-addthis" viewBox="0 0 32 32">
<path fill="#ff6550" style="fill: var(--color1, #ff6550)" d="M24 17.995h-6.001v5.979h-4v-5.979h-5.999v-3.987h6v-5.98h4.001v5.98h5.999zM28 0.055h-24c-2.203 0.003-3.989 1.784-4 3.987v23.92c0.011 2.2 1.797 3.981 4 3.984h24c2.201-0.003 3.988-1.784 4-3.984v-23.92c-0.012-2.203-1.797-3.983-4-3.987z"></path>
</symbol>
<symbol id="icon-close" viewBox="0 0 32 32">
<path d="M6 32h20l2-22h-24zM20 4v-4h-8v4h-10v6l2-2h24l2 2v-6h-10zM18 4h-4v-2h4v2z"></path>
</symbol>
<symbol id="icon-add" viewBox="0 0 32 32">
<path d="M18 8l-4-4h-14v26h32v-22h-14zM22 22h-4v4h-4v-4h-4v-4h4v-4h4v4h4v4z"></path>
</symbol>
<symbol id="icon-cancel" viewBox="0 0 32 32">
<path d="M16 0c-8.837 0-16 7.163-16 16s7.163 16 16 16 16-7.163 16-16-7.163-16-16-16zM16 29c-7.18 0-13-5.82-13-13s5.82-13 13-13 13 5.82 13 13-5.82 13-13 13z"></path>
<path d="M21 8l-5 5-5-5-3 3 5 5-5 5 3 3 5-5 5 5 3-3-5-5 5-5z"></path>
</symbol>
<symbol id="icon-header-close" viewBox="0 0 32 32">
<path d="M32 3.771l-3.771-3.771-12.229 12.229-12.229-12.229-3.771 3.771 12.229 12.229-12.229 12.229 3.771 3.771 12.229-12.229 12.229 12.229 3.771-3.771-12.229-12.229 12.229-12.229z"></path>
</symbol>
<symbol id="icon-Error" viewBox="0 0 32 32">
<path fill="#01e45c" style="fill: var(--color1, #01e45c)" d="M26.886 0.232h-21.771c-2.692 0-4.882 2.19-4.882 4.882v21.772c0 2.692 2.19 4.882 4.882 4.882h21.772c2.692 0 4.882-2.19 4.882-4.882v-21.771c0-2.692-2.19-4.882-4.882-4.882zM29.92 26.886c0 1.673-1.361 3.035-3.035 3.035h-21.771c-1.673 0-3.035-1.361-3.035-3.035v-16.889h27.841v16.889zM29.92 8.149h-27.841v-3.034c0-1.673 1.361-3.035 3.035-3.035h21.772c1.673 0 3.034 1.361 3.034 3.035v3.034z"></path>
<path fill="#01e45c" style="fill: var(--color1, #01e45c)" d="M5.114 0h21.771c2.82 0 5.114 2.294 5.114 5.114v21.771c0 2.82-2.294 5.114-5.114 5.114h-21.772c-2.82 0-5.114-2.294-5.114-5.114v-21.772c0-2.82 2.294-5.114 5.114-5.114zM26.886 29.688c1.545 0 2.803-1.257 2.803-2.803v-16.657h-27.377v16.657c0 1.545 1.257 2.803 2.803 2.803h21.771zM2.312 7.917h27.377v-2.803c0-1.545-1.257-2.803-2.803-2.803h-21.772c-1.545 0-2.803 1.257-2.803 2.803v2.803zM5.114 0.232h21.771c2.692 0 4.882 2.19 4.882 4.882v21.771c0 2.692-2.19 4.882-4.882 4.882h-21.772c-2.692 0-4.882-2.19-4.882-4.882v-21.772c0-2.692 2.19-4.882 4.882-4.882zM26.886 29.92c1.673 0 3.035-1.361 3.035-3.035v-16.889h-27.841v16.889c0 1.673 1.361 3.035 3.035 3.035h21.771zM29.92 8.149v-3.034c0-1.673-1.361-3.035-3.034-3.035h-21.772c-1.673 0-3.035 1.361-3.035 3.035v3.034h27.841z"></path>
<path fill="#01e45c" style="fill: var(--color1, #01e45c)" d="M6.104 4.19h-0.99c-1.224 0.045-1.224 1.803 0 1.848h0.99c1.224-0.045 1.224-1.803 0-1.848z"></path>
<path fill="#01e45c" style="fill: var(--color1, #01e45c)" d="M6.108 3.958l-1.002 0c-1.522 0.056-1.522 2.255 0 2.311h1.007c1.521-0.056 1.522-2.255 0-2.311l-0.004-0zM5.114 6.038c-1.224-0.045-1.224-1.803 0-1.848h0.99c1.224 0.045 1.224 1.803 0 1.848h-0.99z"></path>
<path fill="#01e45c" style="fill: var(--color1, #01e45c)" d="M10.557 4.19h-0.99c-1.224 0.045-1.224 1.803 0 1.848h0.99c1.224-0.045 1.224-1.803 0-1.848z"></path>
<path fill="#01e45c" style="fill: var(--color1, #01e45c)" d="M10.561 3.958l-1.002 0c-1.522 0.056-1.522 2.255-0 2.311h1.007c1.521-0.056 1.522-2.255 0-2.311l-0.004-0zM9.567 6.038c-1.224-0.045-1.224-1.803 0-1.848h0.99c1.224 0.045 1.224 1.803 0 1.848h-0.99z"></path>
<path fill="#01e45c" style="fill: var(--color1, #01e45c)" d="M15.010 4.19h-0.99c-1.224 0.045-1.224 1.803 0 1.848h0.99c1.224-0.045 1.224-1.803 0-1.848z"></path>
<path fill="#01e45c" style="fill: var(--color1, #01e45c)" d="M15.015 3.958l-1.002 0c-1.522 0.056-1.522 2.255 0 2.311h1.007c1.521-0.056 1.522-2.255 0-2.311l-0.004-0zM14.021 6.038c-1.224-0.045-1.224-1.803 0-1.848h0.99c1.224 0.045 1.224 1.803 0 1.848h-0.99z"></path>
<path fill="#01e45c" style="fill: var(--color1, #01e45c)" d="M15.169 19.929c0.458-0.458 1.204-0.458 1.663 0 0.361 0.361 0.946 0.36 1.307-0s0.361-0.946-0-1.307c-1.179-1.178-3.096-1.178-4.275 0-0.834 0.897 0.408 2.14 1.306 1.307z"></path>
<path fill="#01e45c" style="fill: var(--color1, #01e45c)" d="M13.862 18.622c-0.834 0.897 0.408 2.14 1.306 1.307 0.458-0.458 1.204-0.458 1.663 0 0.361 0.361 0.946 0.36 1.307-0s0.361-0.946-0-1.307c-1.179-1.178-3.096-1.178-4.275 0zM16.667 20.093c-0.368-0.368-0.967-0.368-1.335 0l-0.164-0.164 0.158 0.17c-1.117 1.037-2.67-0.52-1.634-1.635l0.003-0.003 0.003-0.003c1.269-1.268 3.334-1.268 4.603 0 0.452 0.451 0.452 1.183 0 1.635s-1.183 0.452-1.635 0z"></path>
<path fill="#01e45c" style="fill: var(--color1, #01e45c)" d="M22.927 16.924c0.51 0 0.924-0.414 0.924-0.924v-0.99c-0.045-1.224-1.803-1.224-1.848 0v0.99c0 0.51 0.414 0.924 0.924 0.924z"></path>
<path fill="#01e45c" style="fill: var(--color1, #01e45c)" d="M24.083 15.006l-0-0.004c-0.056-1.522-2.255-1.522-2.311 0l-0 0.004v0.994c0 0.638 0.517 1.156 1.156 1.156s1.156-0.517 1.156-1.156v-0.994zM22.003 15.010c0.045-1.224 1.803-1.224 1.848 0v0.99c0 0.51-0.414 0.924-0.924 0.924s-0.924-0.414-0.924-0.924v-0.99z"></path>
<path fill="#01e45c" style="fill: var(--color1, #01e45c)" d="M9.073 16.924c0.51 0 0.924-0.414 0.924-0.924v-0.99c-0.045-1.224-1.803-1.224-1.848 0v0.99c0 0.51 0.414 0.924 0.924 0.924z"></path>
<path fill="#01e45c" style="fill: var(--color1, #01e45c)" d="M10.229 15.006l-0-0.004c-0.056-1.522-2.255-1.522-2.311 0l-0 0.004v0.994c0 0.638 0.517 1.156 1.156 1.156s1.156-0.517 1.156-1.156v-0.994zM8.149 15.010c0.045-1.224 1.803-1.224 1.848 0v0.99c0 0.51-0.414 0.924-0.924 0.924s-0.924-0.414-0.924-0.924v-0.99z"></path>
</symbol>
<symbol id="icon-star" viewBox="0 0 37 32">
<path fill="#ffb800" style="fill: var(--color1, #ffb800)" d="M16.715 1.284c0.183-0.336 0.561-0.548 0.975-0.548s0.792 0.212 0.975 0.548l4.241 7.771c0.399 0.731 1.17 1.237 2.061 1.354l9.483 1.247c0.41 0.054 0.75 0.313 0.878 0.669s0.021 0.747-0.275 1.008l-6.861 6.050c-0.645 0.569-0.94 1.388-0.787 2.192l1.619 8.54c0.070 0.369-0.098 0.742-0.433 0.962s-0.779 0.249-1.145 0.075l-8.482-4.032c-0.798-0.379-1.75-0.379-2.548 0l-8.481 4.032c-0.366 0.174-0.81 0.145-1.145-0.075s-0.503-0.593-0.433-0.962l1.62-8.54c0.152-0.803-0.142-1.623-0.787-2.192l-6.862-6.049c-0.296-0.261-0.403-0.652-0.275-1.008s0.468-0.615 0.878-0.669l9.482-1.247c0.892-0.117 1.663-0.624 2.061-1.355l4.24-7.771z"></path>
</symbol>
<symbol id="icon-location" viewBox="0 0 32 32">
<path d="M16 0c-5.523 0-10 4.477-10 10 0 10 10 22 10 22s10-12 10-22c0-5.523-4.477-10-10-10zM16 16c-3.314 0-6-2.686-6-6s2.686-6 6-6 6 2.686 6 6-2.686 6-6 6z"></path>
</symbol>
<symbol id="icon-compare" viewBox="0 0 32 32">
<path fill="#8c8c8c" style="fill: var(--color1, #8c8c8c)" d="M10.948 11.545l1.482 2.965 1.491-2.982-0.588-1.176c-0.55-1.11-1.401-2.044-2.455-2.695s-2.269-0.994-3.508-0.99h-7.37v2.667h7.37c0.743-0.002 1.473 0.203 2.105 0.594s1.143 0.951 1.473 1.617z"></path>
<path fill="#8c8c8c" style="fill: var(--color1, #8c8c8c)" d="M27.609 19.057l-1.886 1.886 1.724 1.724h-5.485c-0.743 0.003-1.473-0.203-2.105-0.594s-1.143-0.951-1.473-1.617l-1.482-2.965-1.491 2.982 0.588 1.176c0.55 1.11 1.401 2.044 2.455 2.695s2.269 0.994 3.508 0.99h5.485l-1.724 1.724 1.886 1.886 4-4c0.124-0.124 0.222-0.271 0.289-0.433s0.101-0.335 0.101-0.51-0.034-0.349-0.101-0.51c-0.067-0.162-0.165-0.309-0.289-0.433l-4-4z"></path>
<path fill="#8c8c8c" style="fill: var(--color1, #8c8c8c)" d="M31.61 7.057l-4-4-1.886 1.886 1.724 1.724h-5.485c-1.239-0.004-2.454 0.339-3.508 0.99s-1.904 1.585-2.455 2.695l-5.052 10.104c-0.33 0.666-0.84 1.226-1.473 1.617s-1.362 0.597-2.105 0.594h-7.37v2.667h7.37c1.239 0.004 2.454-0.339 3.508-0.99s1.904-1.585 2.455-2.695l5.052-10.104c0.33-0.666 0.84-1.226 1.473-1.617s1.362-0.597 2.105-0.594h5.485l-1.724 1.724 1.886 1.886 4-4c0.124-0.124 0.222-0.271 0.289-0.433s0.101-0.335 0.101-0.51-0.034-0.348-0.101-0.51c-0.067-0.162-0.165-0.309-0.289-0.433z"></path>
</symbol>
<symbol id="icon-diplom" viewBox="0 0 32 32">
<path d="M30.75 4.75c-0.481 0-24.948 0-29.5 0-0.69 0-1.25 0.56-1.25 1.25v20c0 0.69 0.56 1.25 1.25 1.25h29.5c0.691 0 1.25-0.56 1.25-1.25v-20c0-0.69-0.559-1.25-1.25-1.25zM7.688 7.25h5v4.831l-1.7-1.416c-0.463-0.386-1.137-0.386-1.601 0l-1.7 1.416v-4.831zM29.5 24.75h-27v-17.5h2.688v7.5c0 1.057 1.237 1.638 2.050 0.96l2.95-2.458 2.95 2.458c0.806 0.672 2.050 0.107 2.050-0.96v-7.5h14.313v17.5zM26.813 19.75c0 0.69-0.56 1.25-1.25 1.25h-19.125c-0.69 0-1.25-0.56-1.25-1.25s0.56-1.25 1.25-1.25h19.125c0.69 0 1.25 0.56 1.25 1.25zM17.563 14.75c0-0.69 0.56-1.25 1.25-1.25h6.75c0.69 0 1.25 0.56 1.25 1.25s-0.56 1.25-1.25 1.25h-6.75c-0.69 0-1.25-0.56-1.25-1.25z"></path>
</symbol>
<symbol id="icon-magistr" viewBox="0 0 32 32">
<path fill="#010002" style="fill: var(--color1, #010002)" d="M7.667 26.667h16.667c0.22-0 0.418-0.096 0.555-0.248l0.001-0.001c0.097-0.109 0.156-0.253 0.156-0.41 0-0.028-0.002-0.055-0.005-0.082l0 0.003c-0.401-3.023-2.225-5.549-4.764-6.914l-0.049-0.024c-1.080 1.082-2.573 1.752-4.222 1.752s-3.142-0.669-4.222-1.752l-0-0c-2.598 1.384-4.429 3.91-4.83 6.891l-0.005 0.047c-0.003 0.024-0.005 0.051-0.005 0.078 0 0.158 0.059 0.302 0.157 0.411l-0.001-0.001c0.137 0.153 0.336 0.249 0.557 0.249 0.004 0 0.009-0 0.013-0h-0.001z"></path>
<path fill="#010002" style="fill: var(--color1, #010002)" d="M20.258 11.8l-0.298 0.142-3.276 1.418c-0.244 0.094-0.527 0.148-0.822 0.148s-0.578-0.054-0.838-0.154l0.016 0.005-3.36-1.462c-0.543 0.806-0.866 1.8-0.866 2.868 0 1.238 0.434 2.374 1.158 3.266l-0.008-0.010c0.089 0.111 0.182 0.213 0.28 0.316s0.2 0.2 0.302 0.293c0.911 0.822 2.123 1.324 3.453 1.324s2.542-0.503 3.458-1.328l-0.005 0.004c0.102-0.093 0.204-0.191 0.302-0.293s0.191-0.204 0.28-0.316c0.718-0.882 1.153-2.020 1.153-3.259 0-1.109-0.348-2.137-0.942-2.98l0.011 0.016z"></path>
<path fill="#000" style="fill: var(--color2, #000)" d="M22.578 13.507h1.102l-0.396-1.284v-4c0.267-0.182 0.191-0.404-0.2-0.542l-6.28-2.222c-0.249-0.079-0.535-0.124-0.832-0.124-0.307 0-0.604 0.049-0.881 0.139l0.020-0.006-6.44 2.431c-0.467 0.173-0.467 0.444 0 0.636l2.307 0.889v0.444c0.030 0.545 0.351 1.009 0.809 1.241l0.008 0.004 3.244 1.413c0.244 0.093 0.527 0.147 0.822 0.147s0.578-0.054 0.839-0.152l-0.016 0.005 3.276-1.413c0.471-0.236 0.795-0.704 0.822-1.25l0-0.003v-0.524l2.173-0.916v3.84z"></path>
</symbol>
<symbol id="icon-bakalavr" viewBox="0 0 32 32">
<path d="M3.591 23.65c0.11 0.111 0.28 0.136 0.417 0.064l1.106-0.584 0.128 1.244c0.012 0.12 0.084 0.222 0.186 0.277 0.030 0.016 0.064 0.028 0.099 0.035 0.153 0.030 0.308-0.043 0.381-0.181l1.305-2.44 1.305 2.44c0.074 0.138 0.228 0.211 0.381 0.181 0.035-0.007 0.068-0.019 0.099-0.035 0.102-0.055 0.173-0.157 0.186-0.277l0.128-1.244 1.106 0.584c0.138 0.073 0.307 0.047 0.417-0.064s0.135-0.28 0.061-0.418l-1.505-2.815c0.406-0.49 0.651-1.118 0.651-1.803 0-1.56-1.269-2.829-2.829-2.829s-2.829 1.269-2.829 2.829c0 0.685 0.244 1.313 0.651 1.803l-1.505 2.815c-0.074 0.137-0.049 0.307 0.061 0.418zM7.213 17.183c0.789 0 1.432 0.642 1.432 1.432s-0.642 1.432-1.432 1.432c-0.79 0-1.432-0.642-1.432-1.432s0.642-1.432 1.432-1.432z"></path>
<path d="M23.951 17.576v7.997h-21.672v-14.591h12.025c0.027-0.118 0.065-0.236 0.115-0.35l0.954-2.174h-13.858c-0.835 0-1.515 0.68-1.515 1.515v16.61c0 0.835 0.679 1.515 1.515 1.515h23.201c0.835 0 1.515-0.679 1.515-1.515v-8.778c-0.003 0-0.005 0-0.007-0-0.771-0.027-1.529-0.104-2.272-0.228z"></path>
<path d="M31.775 10.383l-5.78-5.687c-0.208-0.261-0.532-0.404-0.865-0.379l-8.127-0.413c-0.344 0-0.703 0.259-0.854 0.603s-0.099 0.743 0.135 1.037l1.137 1.43-0.262 0.597c-0.825 1.882-0.547 1.249-1.522 3.47-0.156 0.356-0.079 0.772 0.194 1.049 1.446 1.463 3.094 2.606 4.899 3.398 0 0 0 0 0.001 0 1.805 0.792 3.762 1.23 5.817 1.303 0.389 0.014 0.747-0.211 0.903-0.567l1.784-4.067 0.916-0.066 0.002 2.427-0.126-0c-0.088-0.008-0.165 0.055-0.175 0.143l-0.163 1.415c-0.005 0.043 0.008 0.087 0.035 0.12s0.067 0.055 0.11 0.059l1.296-0.001c0.043-0.004 0.083-0.026 0.11-0.059s0.040-0.077 0.035-0.12c-0.033-0.278-0.065-0.556-0.098-0.834l-0.068-0.581c-0.010-0.087-0.088-0.15-0.175-0.142l-0.126 0-0.002-2.483 0.473-0.051c0.287-0.053 0.511-0.287 0.631-0.561 0.151-0.344 0.118-0.776-0.135-1.037z"></path>
</symbol>
<symbol id="icon-type" viewBox="0 0 32 32">
<path d="M0 9.918v3.808h6.915l5.87-3.808z"></path>
<path d="M19.215 9.918l5.87 3.808h6.915v-3.808z"></path>
<path d="M15.049 1.68v6.771l0.951-0.617 0.951 0.617v-1.511l6.166-2.278z"></path>
<path d="M22.94 22.766c-0.503 0-0.913 0.409-0.913 0.913v6.642h1.825v-6.642c-0-0.503-0.409-0.912-0.913-0.912z"></path>
<path d="M9.060 22.766c-0.503 0-0.912 0.409-0.912 0.913v6.642h1.825v-6.642c0-0.503-0.409-0.912-0.912-0.912z"></path>
<path d="M16 22.766c-0.503 0-0.912 0.409-0.912 0.912v6.642h1.825v-6.642c-0-0.503-0.409-0.912-0.913-0.912z"></path>
<path d="M16 15.188c-0.589 0-1.069 0.479-1.069 1.069s0.479 1.069 1.069 1.069c0.589 0 1.069-0.479 1.069-1.069s-0.479-1.069-1.069-1.069z"></path>
<path d="M16 10.101l-7.852 5.093v5.822c0.286-0.098 0.593-0.153 0.912-0.153 1.552 0 2.815 1.263 2.815 2.815v6.642h1.309v-6.642c0-1.552 1.263-2.815 2.815-2.815s2.815 1.263 2.815 2.815v6.642h1.309v-6.642c0-1.552 1.263-2.815 2.815-2.815 0.319 0 0.626 0.054 0.913 0.153v-5.822l-7.852-5.093zM16 19.228c-1.638 0-2.971-1.333-2.971-2.971s1.333-2.971 2.971-2.971c1.638 0 2.971 1.333 2.971 2.971s-1.333 2.971-2.971 2.971z"></path>
<path d="M0 15.629v14.692h6.245v-14.692h-6.245zM4.074 27.561h-1.903v-2.106h1.903v2.106zM4.074 24.027h-1.903v-2.106h1.903v2.106zM4.074 20.494h-1.903v-2.106h1.903v2.106z"></path>
<path d="M25.755 15.629v14.692h6.245v-14.692h-6.245zM29.829 27.561h-1.903v-2.106h1.903v2.106zM29.829 24.027h-1.903v-2.106h1.903v2.106zM29.829 20.494h-1.903v-2.106h1.903v2.106z"></path>
</symbol>
<symbol id="icon-done" viewBox="0 0 43 32">
<path fill="#00c213" style="fill: var(--color1, #00c213)" d="M39.39 0l-26.166 25.591-9.947-9.728-3.276 3.204 13.224 12.933 29.443-28.796-3.277-3.204z"></path>
</symbol>
</defs>
</svg>
