<svg width="16" height="14" viewBox="0 0 16 14" fill="none" xmlns="http://www.w3.org/2000/svg">
<path d="M7.313 0.561621C7.39314 0.414774 7.5585 0.321808 7.73958 0.321808C7.92067 0.321779 8.08605 0.414745 8.1662 0.561593L10.0217 3.96144C10.1962 4.28113 10.5335 4.50276 10.9236 4.554L15.0723 5.09944C15.2515 5.12302 15.4004 5.23652 15.4564 5.39228C15.5123 5.54802 15.4657 5.71901 15.336 5.83334L12.3342 8.48003C12.0519 8.72894 11.9231 9.08748 11.9897 9.43883L12.698 13.1753C12.7286 13.3367 12.6552 13.4998 12.5087 13.596C12.3622 13.6923 12.168 13.7049 12.0078 13.6287L8.29697 11.8647C7.94805 11.6988 7.5312 11.6988 7.18222 11.8647L3.47178 13.6287C3.31149 13.7049 3.11727 13.6922 2.9708 13.5959C2.82429 13.4997 2.75095 13.3365 2.78154 13.1752L3.49015 9.439C3.55683 9.08753 3.428 8.72894 3.14566 8.47998L0.143675 5.83337C0.014032 5.71904 -0.0326684 5.54805 0.0232967 5.39231C0.0792619 5.23657 0.228125 5.12307 0.407327 5.09947L4.55591 4.55406C4.94603 4.50276 5.2833 4.28116 5.45779 3.96141L7.313 0.561621Z" fill="#FFB800"/>
</svg>
