<svg width="18" height="18" viewBox="0 0 18 18" fill="none" xmlns="http://www.w3.org/2000/svg">
<path d="M6.43407 3.47362C6.43407 3.36141 6.44965 3.11909 6.48082 2.74819C6.51432 2.37652 6.65458 1.98771 6.90626 1.57941C7.1556 1.17268 7.55999 0.807238 8.12257 0.483875C8.6828 0.162071 9.49238 0 10.549 0H13.5254V3.24376H11.3461C11.1302 3.24376 10.9292 3.32479 10.7476 3.48452C10.5677 3.64426 10.4749 3.7962 10.4749 3.93723V5.95533H13.5247C13.4927 6.35037 13.4577 6.73451 13.4171 7.10541L13.2964 8.08562C13.2481 8.41678 13.199 8.72378 13.1507 9.00662H10.4531V18H6.43407V9.00584H4.47363V5.95533H6.43407V3.47362Z" fill="white"/>
</svg>
