<svg aria-hidden="true" style="position: absolute; width: 0; height: 0; overflow: hidden;" version="1.1" xmlns="http://www.w3.org/2000/svg" xmlns:xlink="http://www.w3.org/1999/xlink">
<defs>
<symbol id="icon-burger" viewBox="0 0 32 32">
<path d="M32 3.814h-32v3.179h32v-3.179z"></path>
<path d="M32 25.007h-32v3.179h32v-3.179z"></path>
<path d="M32 14.411h-32v3.179h32v-3.179z"></path>
</symbol>
<symbol id="icon-search" viewBox="0 0 32 32">
<path d="M14.092 0c-7.77 0-14.092 6.322-14.092 14.092s6.322 14.092 14.092 14.092c7.771 0 14.092-6.322 14.092-14.092s-6.322-14.092-14.092-14.092zM14.092 25.583c-6.336 0-11.491-5.155-11.491-11.491s5.155-11.491 11.491-11.491c6.336 0 11.49 5.155 11.49 11.491s-5.155 11.491-11.49 11.491z"></path>
<path d="M31.618 29.779l-7.458-7.458c-0.508-0.508-1.331-0.508-1.839 0s-0.508 1.332 0 1.839l7.458 7.458c0.254 0.254 0.587 0.381 0.92 0.381s0.666-0.127 0.92-0.381c0.508-0.508 0.508-1.332 0-1.839z"></path>
</symbol>
<symbol id="icon-comparison" viewBox="0 0 23 32">
<path fill="#2b2b2b" style="fill: var(--color1, #2b2b2b)" d="M20.151 16.072l-5.091-6.107c-0.284-0.341-0.745-0.341-1.029 0-0.136 0.164-0.213 0.385-0.213 0.617v2.617h-5.091c-0.402 0-0.727 0.391-0.727 0.872s0.326 0.872 0.727 0.872h5.818c0.402 0 0.727-0.391 0.727-0.872v-1.384l3.335 4.001-3.335 4.001v-1.384c0-0.482-0.326-0.872-0.727-0.872h-8v-2.617c-0-0.482-0.326-0.872-0.727-0.872-0.193 0-0.378 0.092-0.514 0.255l-5.091 6.107c-0.284 0.341-0.284 0.893 0 1.234l5.091 6.107c0.136 0.164 0.321 0.256 0.514 0.256 0.096 0 0.19-0.022 0.279-0.066 0.272-0.135 0.449-0.453 0.449-0.806v-2.617h5.091c0.402 0 0.727-0.391 0.727-0.872s-0.326-0.872-0.727-0.872h-5.818c-0.402 0-0.727 0.391-0.727 0.872v1.384l-3.335-4.001 3.335-4.001v1.384c0 0.482 0.326 0.872 0.727 0.872h8v2.617c0 0.482 0.326 0.872 0.727 0.872 0.193-0 0.378-0.092 0.514-0.255l5.091-6.107c0.284-0.341 0.284-0.893 0-1.234z"></path>
<path fill="#00d254" style="fill: var(--color2, #00d254)" d="M22.545 5.455c0 3.012-2.442 5.455-5.455 5.455s-5.455-2.442-5.455-5.455c0-3.012 2.442-5.455 5.455-5.455s5.455 2.442 5.455 5.455z"></path>
<path fill="#fff" style="fill: var(--color3, #fff)" d="M15.6 6.531c0.015-0.577 0.182-1.018 0.502-1.324 0.325-0.305 0.783-0.458 1.375-0.458 0.383 0 0.71 0.065 0.982 0.196s0.475 0.308 0.611 0.531c0.141 0.223 0.211 0.475 0.211 0.756 0 0.339-0.080 0.606-0.24 0.8-0.16 0.189-0.339 0.318-0.538 0.385v0.029c0.582 0.218 0.873 0.623 0.873 1.215 0 0.31-0.073 0.584-0.218 0.822s-0.354 0.422-0.625 0.553c-0.267 0.131-0.584 0.196-0.953 0.196-0.63 0-1.125-0.15-1.484-0.451s-0.543-0.771-0.553-1.411h1.571c-0.010 0.175 0.015 0.308 0.073 0.4 0.063 0.087 0.17 0.131 0.32 0.131 0.087 0 0.16-0.031 0.218-0.095 0.058-0.068 0.087-0.155 0.087-0.262 0-0.136-0.046-0.238-0.138-0.305-0.087-0.073-0.238-0.109-0.451-0.109h-0.269v-1.302h0.262c0.33 0.019 0.495-0.112 0.495-0.393 0-0.121-0.027-0.211-0.080-0.269-0.049-0.058-0.111-0.087-0.189-0.087-0.179 0-0.269 0.15-0.269 0.451h-1.571z"></path>
</symbol>
<symbol id="icon-advantages-video" viewBox="0 0 40 32">
<path fill="#01e45c" style="fill: var(--color1, #01e45c)" d="M3.516 31.686h32.969c1.938 0 3.516-1.508 3.516-3.361v-24.649c0-1.853-1.577-3.361-3.516-3.361h-32.969c-1.938 0-3.516 1.508-3.516 3.361v24.649c0 1.853 1.577 3.361 3.516 3.361zM2.344 3.675c0-0.618 0.526-1.12 1.172-1.12h32.969c0.646 0 1.172 0.503 1.172 1.12v24.649c0 0.618-0.526 1.12-1.172 1.12h-32.969c-0.646 0-1.172-0.503-1.172-1.12v-24.649z"></path>
<path fill="#2b2b2b" style="fill: var(--color2, #2b2b2b)" d="M5.859 24.963h1.452c0.484 1.304 1.786 2.241 3.314 2.241s2.83-0.937 3.314-2.241h20.202c0.647 0 1.172-0.502 1.172-1.12s-0.525-1.12-1.172-1.12h-20.201c-0.484-1.304-1.786-2.241-3.314-2.241s-2.83 0.937-3.314 2.241h-1.452c-0.647 0-1.172 0.502-1.172 1.12s0.525 1.12 1.172 1.12zM10.625 22.723c0.646 0 1.172 0.503 1.172 1.12s-0.526 1.12-1.172 1.12c-0.646 0-1.172-0.503-1.172-1.12s0.526-1.12 1.172-1.12z"></path>
<path fill="#2b2b2b" style="fill: var(--color2, #2b2b2b)" d="M14.696 18.073c0.346 0.204 0.778 0.222 1.14 0.049l9.375-4.482c0.397-0.19 0.648-0.578 0.648-1.002s-0.251-0.812-0.648-1.002l-9.375-4.482c-0.363-0.174-0.795-0.155-1.14 0.049s-0.556 0.565-0.556 0.953v8.963c0 0.388 0.21 0.749 0.556 0.953zM16.484 9.97l5.583 2.669-5.583 2.669v-5.338z"></path>
</symbol>
<symbol id="icon-advantages-search" viewBox="0 0 42 32">
<path fill="#01e45c" style="fill: var(--color1, #01e45c)" d="M40.873 24.765l-9.393-9.341c1.762-3.978 1.008-8.801-2.264-12.055-4.263-4.239-11.163-4.24-15.427 0-4.253 4.229-4.253 11.111 0 15.34 3.38 3.361 8.333 4.001 12.287 2.183l9.345 9.293c1.507 1.498 3.946 1.498 5.452-0 1.503-1.494 1.502-3.926-0-5.421zM15.53 16.98c-3.294-3.275-3.294-8.605 0-11.88 3.301-3.283 8.645-3.283 11.946 0 3.294 3.275 3.294 8.605 0 11.88-3.301 3.283-8.645 3.283-11.946 0zM39.133 28.456c-0.545 0.542-1.426 0.542-1.971 0l-8.928-8.878c0.734-0.574 1.388-1.234 1.956-1.976l8.943 8.894c0.544 0.541 0.544 1.42 0 1.961z"></path>
<path fill="#2b2b2b" style="fill: var(--color2, #2b2b2b)" d="M1.231 14.85h5.247c0.68 0 1.231-0.548 1.231-1.223s-0.551-1.223-1.231-1.223h-5.247c-0.68 0-1.231 0.548-1.231 1.223s0.551 1.223 1.231 1.223z"></path>
<path fill="#2b2b2b" style="fill: var(--color2, #2b2b2b)" d="M1.231 20.069h7.215c0.68 0 1.231-0.548 1.231-1.223s-0.551-1.223-1.231-1.223h-7.215c-0.68 0-1.231 0.548-1.231 1.223s0.551 1.223 1.231 1.223z"></path>
<path fill="#2b2b2b" style="fill: var(--color2, #2b2b2b)" d="M1.231 25.289h12.462c0.68 0 1.231-0.548 1.231-1.223s-0.551-1.223-1.231-1.223h-12.462c-0.68 0-1.231 0.548-1.231 1.223s0.551 1.223 1.231 1.223z"></path>
<path fill="#2b2b2b" style="fill: var(--color2, #2b2b2b)" d="M28.122 28.062h-26.892c-0.68 0-1.231 0.548-1.231 1.223s0.551 1.223 1.231 1.223h26.892c0.68 0 1.23-0.548 1.23-1.223s-0.551-1.223-1.23-1.223z"></path>
</symbol>
<symbol id="icon-advantages-mic" viewBox="0 0 34 32">
<path fill="#2b2b2b" style="fill: var(--color2, #2b2b2b)" d="M2.82 1.206v1.494c-1.417 0.498-2.434 1.838-2.434 3.41s1.018 2.913 2.434 3.41v20.79c0 0.666 0.545 1.206 1.217 1.206s1.217-0.54 1.217-1.206v-20.79c1.417-0.498 2.434-1.838 2.434-3.41s-1.018-2.913-2.434-3.41v-1.494c0-0.666-0.545-1.206-1.217-1.206s-1.217 0.54-1.217 1.206zM5.254 6.11c0 0.665-0.546 1.206-1.217 1.206s-1.217-0.541-1.217-1.206c0-0.665 0.546-1.206 1.217-1.206s1.217 0.541 1.217 1.206z"></path>
<path fill="#01e45c" style="fill: var(--color1, #01e45c)" d="M15.856 30.31v-1.494c-1.416-0.498-2.434-1.838-2.434-3.411s1.018-2.913 2.434-3.41v-20.789c0-0.666 0.545-1.206 1.217-1.206s1.217 0.54 1.217 1.206v20.789c1.417 0.498 2.434 1.838 2.434 3.41s-1.018 2.913-2.434 3.411v1.494c0 0.666-0.545 1.206-1.217 1.206s-1.217-0.54-1.217-1.206zM18.29 25.406c0-0.665-0.546-1.206-1.217-1.206s-1.217 0.541-1.217 1.206c0 0.665 0.546 1.206 1.217 1.206s1.217-0.541 1.217-1.206z"></path>
<path fill="#2b2b2b" style="fill: var(--color2, #2b2b2b)" d="M28.89 1.206v1.494c-1.416 0.498-2.434 1.838-2.434 3.41s1.018 2.913 2.434 3.41v20.79c0 0.666 0.545 1.206 1.217 1.206s1.217-0.54 1.217-1.206v-20.79c1.416-0.498 2.434-1.838 2.434-3.41s-1.018-2.913-2.434-3.41v-1.494c0-0.666-0.545-1.206-1.217-1.206s-1.217 0.54-1.217 1.206zM31.324 6.11c0 0.665-0.546 1.206-1.217 1.206s-1.217-0.541-1.217-1.206 0.546-1.206 1.217-1.206c0.671 0 1.217 0.541 1.217 1.206z"></path>
</symbol>
<symbol id="icon-telegram" viewBox="0 0 32 32">
<path  d="M12.556 20.241l-0.529 7.445c0.757 0 1.085-0.325 1.479-0.716l3.551-3.393 7.357 5.388c1.349 0.752 2.3 0.356 2.664-1.241l4.829-22.629 0.001-0.001c0.428-1.995-0.721-2.775-2.036-2.285l-28.387 10.868c-1.937 0.752-1.908 1.832-0.329 2.321l7.257 2.257 16.857-10.548c0.793-0.525 1.515-0.235 0.921 0.291l-13.636 12.244z"></path>
</symbol>
<symbol id="icon-instagram" viewBox="0 0 32 32">
<path d="M22 0h-12c-5.522 0-10 4.478-10 10v12c0 5.522 4.478 10 10 10h12c5.522 0 10-4.478 10-10v-12c0-5.522-4.478-10-10-10zM29 22c0 3.86-3.14 7-7 7h-12c-3.86 0-7-3.14-7-7v-12c0-3.86 3.14-7 7-7h12c3.86 0 7 3.14 7 7v12z"></path>
<path  d="M16 8c-4.418 0-8 3.582-8 8s3.582 8 8 8c4.418 0 8-3.582 8-8s-3.582-8-8-8zM16 21c-2.756 0-5-2.244-5-5 0-2.758 2.244-5 5-5s5 2.242 5 5c0 2.756-2.244 5-5 5z"></path>
<path  d="M24.599 8.466c0.589 0 1.066-0.477 1.066-1.066s-0.477-1.066-1.066-1.066c-0.589 0-1.066 0.477-1.066 1.066s0.477 1.066 1.066 1.066z"></path>
</symbol>
<symbol id="icon-youtube" viewBox="0 0 32 32">
<path  d="M30.366 8.502c-0.346-1.285-1.359-2.298-2.644-2.644-2.348-0.642-11.738-0.642-11.738-0.642s-9.39 0-11.738 0.618c-1.26 0.346-2.298 1.384-2.644 2.669-0.618 2.347-0.618 7.216-0.618 7.216s0 4.893 0.618 7.216c0.346 1.285 1.359 2.298 2.644 2.644 2.372 0.642 11.738 0.642 11.738 0.642s9.39 0 11.738-0.618c1.285-0.346 2.298-1.359 2.644-2.644 0.618-2.348 0.618-7.216 0.618-7.216s0.025-4.893-0.618-7.24zM12.994 20.215v-8.995l7.809 4.497-7.809 4.497z"></path>
</symbol>
<symbol id="icon-facebook" viewBox="0 0 32 32">
<path  d="M11.438 6.175c0-0.2 0.028-0.63 0.083-1.29 0.060-0.661 0.309-1.352 0.756-2.078 0.443-0.723 1.162-1.373 2.162-1.948 0.996-0.572 2.435-0.86 4.314-0.86h5.291v5.767h-3.874c-0.384 0-0.741 0.144-1.064 0.428-0.32 0.284-0.485 0.554-0.485 0.805v3.588h5.422c-0.057 0.702-0.119 1.385-0.191 2.045l-0.215 1.743c-0.086 0.589-0.173 1.134-0.259 1.637h-4.796v15.988h-7.145v-15.99h-3.485v-5.423h3.485v-4.412z"></path>
</symbol>
<symbol id="icon-footer-plus" viewBox="0 0 32 32">
<path fill="#fff" style="fill: var(--color1, #fff)" d="M30.248 13.503h-11.748v-11.728c0-0.965-0.782-1.772-1.747-1.772h-1.504c-0.965 0-1.75 0.807-1.75 1.772v11.728h-11.75c-0.965 0-1.75 0.78-1.75 1.746v1.512c0 0.965 0.785 1.742 1.75 1.742h11.75v11.77c0 0.965 0.785 1.73 1.75 1.73h1.504c0.965 0 1.747-0.765 1.747-1.73v-11.77h11.748c0.965 0 1.752-0.777 1.752-1.742v-1.512c0-0.965-0.787-1.746-1.752-1.746z"></path>
</symbol>
<symbol id="icon-footer-minus" viewBox="0 0 32 32">
<path fill="#fff" style="fill: var(--color1, #fff)" d="M29.818 13.114h-27.636c-1.204 0-2.182 0.977-2.182 2.182v1.454c0 1.204 0.977 2.182 2.182 2.182h27.636c1.204 0 2.182-0.977 2.182-2.182v-1.454c0-1.204-0.977-2.182-2.182-2.182z"></path>
</symbol>
<symbol id="icon-addthis" viewBox="0 0 32 32">
<path fill="#ff6550" style="fill: var(--color1, #ff6550)" d="M24 17.995h-6.001v5.979h-4v-5.979h-5.999v-3.987h6v-5.98h4.001v5.98h5.999zM28 0.055h-24c-2.203 0.003-3.989 1.784-4 3.987v23.92c0.011 2.2 1.797 3.981 4 3.984h24c2.201-0.003 3.988-1.784 4-3.984v-23.92c-0.012-2.203-1.797-3.983-4-3.987z"></path>
</symbol>
<symbol id="icon-close" viewBox="0 0 32 32">
<path d="M6 32h20l2-22h-24zM20 4v-4h-8v4h-10v6l2-2h24l2 2v-6h-10zM18 4h-4v-2h4v2z"></path>
</symbol>
<symbol id="icon-add" viewBox="0 0 32 32">
<path d="M18 8l-4-4h-14v26h32v-22h-14zM22 22h-4v4h-4v-4h-4v-4h4v-4h4v4h4v4z"></path>
</symbol>
<symbol id="icon-cancel" viewBox="0 0 32 32">
<path d="M16 0c-8.837 0-16 7.163-16 16s7.163 16 16 16 16-7.163 16-16-7.163-16-16-16zM16 29c-7.18 0-13-5.82-13-13s5.82-13 13-13 13 5.82 13 13-5.82 13-13 13z"></path>
<path d="M21 8l-5 5-5-5-3 3 5 5-5 5 3 3 5-5 5 5 3-3-5-5 5-5z"></path>
</symbol>
<symbol id="icon-header-close" viewBox="0 0 32 32">
<path d="M32 3.771l-3.771-3.771-12.229 12.229-12.229-12.229-3.771 3.771 12.229 12.229-12.229 12.229 3.771 3.771 12.229-12.229 12.229 12.229 3.771-3.771-12.229-12.229 12.229-12.229z"></path>
</symbol>
<symbol id="icon-Error" viewBox="0 0 32 32">
<path fill="#01e45c" style="fill: var(--color1, #01e45c)" d="M26.886 0.232h-21.771c-2.692 0-4.882 2.19-4.882 4.882v21.772c0 2.692 2.19 4.882 4.882 4.882h21.772c2.692 0 4.882-2.19 4.882-4.882v-21.771c0-2.692-2.19-4.882-4.882-4.882zM29.92 26.886c0 1.673-1.361 3.035-3.035 3.035h-21.771c-1.673 0-3.035-1.361-3.035-3.035v-16.889h27.841v16.889zM29.92 8.149h-27.841v-3.034c0-1.673 1.361-3.035 3.035-3.035h21.772c1.673 0 3.034 1.361 3.034 3.035v3.034z"></path>
<path fill="#01e45c" style="fill: var(--color1, #01e45c)" d="M5.114 0h21.771c2.82 0 5.114 2.294 5.114 5.114v21.771c0 2.82-2.294 5.114-5.114 5.114h-21.772c-2.82 0-5.114-2.294-5.114-5.114v-21.772c0-2.82 2.294-5.114 5.114-5.114zM26.886 29.688c1.545 0 2.803-1.257 2.803-2.803v-16.657h-27.377v16.657c0 1.545 1.257 2.803 2.803 2.803h21.771zM2.312 7.917h27.377v-2.803c0-1.545-1.257-2.803-2.803-2.803h-21.772c-1.545 0-2.803 1.257-2.803 2.803v2.803zM5.114 0.232h21.771c2.692 0 4.882 2.19 4.882 4.882v21.771c0 2.692-2.19 4.882-4.882 4.882h-21.772c-2.692 0-4.882-2.19-4.882-4.882v-21.772c0-2.692 2.19-4.882 4.882-4.882zM26.886 29.92c1.673 0 3.035-1.361 3.035-3.035v-16.889h-27.841v16.889c0 1.673 1.361 3.035 3.035 3.035h21.771zM29.92 8.149v-3.034c0-1.673-1.361-3.035-3.034-3.035h-21.772c-1.673 0-3.035 1.361-3.035 3.035v3.034h27.841z"></path>
<path fill="#01e45c" style="fill: var(--color1, #01e45c)" d="M6.104 4.19h-0.99c-1.224 0.045-1.224 1.803 0 1.848h0.99c1.224-0.045 1.224-1.803 0-1.848z"></path>
<path fill="#01e45c" style="fill: var(--color1, #01e45c)" d="M6.108 3.958l-1.002 0c-1.522 0.056-1.522 2.255 0 2.311h1.007c1.521-0.056 1.522-2.255 0-2.311l-0.004-0zM5.114 6.038c-1.224-0.045-1.224-1.803 0-1.848h0.99c1.224 0.045 1.224 1.803 0 1.848h-0.99z"></path>
<path fill="#01e45c" style="fill: var(--color1, #01e45c)" d="M10.557 4.19h-0.99c-1.224 0.045-1.224 1.803 0 1.848h0.99c1.224-0.045 1.224-1.803 0-1.848z"></path>
<path fill="#01e45c" style="fill: var(--color1, #01e45c)" d="M10.561 3.958l-1.002 0c-1.522 0.056-1.522 2.255-0 2.311h1.007c1.521-0.056 1.522-2.255 0-2.311l-0.004-0zM9.567 6.038c-1.224-0.045-1.224-1.803 0-1.848h0.99c1.224 0.045 1.224 1.803 0 1.848h-0.99z"></path>
<path fill="#01e45c" style="fill: var(--color1, #01e45c)" d="M15.010 4.19h-0.99c-1.224 0.045-1.224 1.803 0 1.848h0.99c1.224-0.045 1.224-1.803 0-1.848z"></path>
<path fill="#01e45c" style="fill: var(--color1, #01e45c)" d="M15.015 3.958l-1.002 0c-1.522 0.056-1.522 2.255 0 2.311h1.007c1.521-0.056 1.522-2.255 0-2.311l-0.004-0zM14.021 6.038c-1.224-0.045-1.224-1.803 0-1.848h0.99c1.224 0.045 1.224 1.803 0 1.848h-0.99z"></path>
<path fill="#01e45c" style="fill: var(--color1, #01e45c)" d="M15.169 19.929c0.458-0.458 1.204-0.458 1.663 0 0.361 0.361 0.946 0.36 1.307-0s0.361-0.946-0-1.307c-1.179-1.178-3.096-1.178-4.275 0-0.834 0.897 0.408 2.14 1.306 1.307z"></path>
<path fill="#01e45c" style="fill: var(--color1, #01e45c)" d="M13.862 18.622c-0.834 0.897 0.408 2.14 1.306 1.307 0.458-0.458 1.204-0.458 1.663 0 0.361 0.361 0.946 0.36 1.307-0s0.361-0.946-0-1.307c-1.179-1.178-3.096-1.178-4.275 0zM16.667 20.093c-0.368-0.368-0.967-0.368-1.335 0l-0.164-0.164 0.158 0.17c-1.117 1.037-2.67-0.52-1.634-1.635l0.003-0.003 0.003-0.003c1.269-1.268 3.334-1.268 4.603 0 0.452 0.451 0.452 1.183 0 1.635s-1.183 0.452-1.635 0z"></path>
<path fill="#01e45c" style="fill: var(--color1, #01e45c)" d="M22.927 16.924c0.51 0 0.924-0.414 0.924-0.924v-0.99c-0.045-1.224-1.803-1.224-1.848 0v0.99c0 0.51 0.414 0.924 0.924 0.924z"></path>
<path fill="#01e45c" style="fill: var(--color1, #01e45c)" d="M24.083 15.006l-0-0.004c-0.056-1.522-2.255-1.522-2.311 0l-0 0.004v0.994c0 0.638 0.517 1.156 1.156 1.156s1.156-0.517 1.156-1.156v-0.994zM22.003 15.010c0.045-1.224 1.803-1.224 1.848 0v0.99c0 0.51-0.414 0.924-0.924 0.924s-0.924-0.414-0.924-0.924v-0.99z"></path>
<path fill="#01e45c" style="fill: var(--color1, #01e45c)" d="M9.073 16.924c0.51 0 0.924-0.414 0.924-0.924v-0.99c-0.045-1.224-1.803-1.224-1.848 0v0.99c0 0.51 0.414 0.924 0.924 0.924z"></path>
<path fill="#01e45c" style="fill: var(--color1, #01e45c)" d="M10.229 15.006l-0-0.004c-0.056-1.522-2.255-1.522-2.311 0l-0 0.004v0.994c0 0.638 0.517 1.156 1.156 1.156s1.156-0.517 1.156-1.156v-0.994zM8.149 15.010c0.045-1.224 1.803-1.224 1.848 0v0.99c0 0.51-0.414 0.924-0.924 0.924s-0.924-0.414-0.924-0.924v-0.99z"></path>
</symbol>
</defs>
</svg>
